<?xml version="1.0" encoding="UTF-8" standalone="no"?>
<!-- Created with Inkscape (http://www.inkscape.org/) -->

<svg
   version="1.1"
   id="svg2"
   width="2380"
   height="1466"
   viewBox="0 0 2380 1466"
   sodipodi:docname="drone.svg"
   inkscape:version="1.2.2 (732a01da63, 2022-12-09)"
   inkscape:export-filename="drone.png"
   inkscape:export-xdpi="96"
   inkscape:export-ydpi="96"
   xmlns:inkscape="http://www.inkscape.org/namespaces/inkscape"
   xmlns:sodipodi="http://sodipodi.sourceforge.net/DTD/sodipodi-0.dtd"
   xmlns="http://www.w3.org/2000/svg"
   xmlns:svg="http://www.w3.org/2000/svg">
  <defs
     id="defs6">
    <inkscape:path-effect
       effect="mirror_symmetry"
       start_point="1156.3462,1154.0057"
       end_point="1156.3462,162.23634"
       center_point="1156.3462,658.12102"
       id="path-effect1719"
       is_visible="true"
       lpeversion="1.2"
       lpesatellites=""
       mode="free"
       discard_orig_path="false"
       fuse_paths="false"
       oposite_fuse="false"
       split_items="false"
       split_open="false"
       link_styles="false" />
  </defs>
  <sodipodi:namedview
     id="namedview4"
     pagecolor="#505050"
     bordercolor="#eeeeee"
     borderopacity="1"
     inkscape:showpageshadow="0"
     inkscape:pageopacity="0"
     inkscape:pagecheckerboard="0"
     inkscape:deskcolor="#505050"
     showgrid="false"
     inkscape:zoom="0.36751726"
     inkscape:cx="1027.1626"
     inkscape:cy="813.56722"
     inkscape:window-width="1920"
     inkscape:window-height="1017"
     inkscape:window-x="-8"
     inkscape:window-y="-8"
     inkscape:window-maximized="1"
     inkscape:current-layer="layer1" />
  <g
     inkscape:groupmode="layer"
     id="layer1"
     inkscape:label="Outline"
     style="stroke-width:4;stroke-dasharray:none"
     inkscape:path-effect="#path-effect1719"
     class="UnoptimicedTransforms">
    <path
       style="fill:none;stroke:#000000;stroke-width:4;stroke-linecap:butt;stroke-linejoin:miter;stroke-dasharray:none;stroke-opacity:1"
       d="m 1155.4195,157.96378 c 0,0 2.8536,2.65922 3.0593,5.08672 4.3868,51.78546 5.6527,90.08204 5.6527,90.08204 0,0 -2.0527,150.35469 4.5202,161.33723 12.2718,20.50455 19.4031,31.41267 27.4691,47.98391 16.9743,34.87275 43.8114,107.78995 43.8114,107.78995 0,0 728.8957,31.04029 955.5187,21.48297 28.7843,-1.21391 52.2346,-30.2972 64.1335,-31.95258 9.562,-1.33027 20.5945,9.60516 20.7373,18.33824 0.2323,14.20315 -6.2655,29.53426 -14.8117,42.05062 -5.7885,8.47741 -13.3666,16.43438 -22.7042,20.56853 -13.8547,6.13404 -30.0879,4.38153 -45.2397,4.42562 -300.9813,0.87585 -943.7255,0.88728 -943.7255,0.88728 l -14.0313,-76.04655 m -82.5364,-412.03398 c 0,0 -2.8536,2.65922 -3.0593,5.08672 -4.3868,51.78546 -5.6527,90.08204 -5.6527,90.08204 0,0 2.0527,150.35469 -4.5202,161.33723 -12.2718,20.50455 -19.4031,31.41267 -27.4691,47.98391 -16.9743,34.87275 -43.8114,107.78995 -43.8114,107.78995 0,0 -728.8957,31.04029 -955.5187,21.48297 -28.7843,-1.21391 -52.2346,-30.2972 -64.1335,-31.95258 -9.562,-1.33027 -20.5945,9.60516 -20.7373,18.33824 -0.2323,14.20315 6.2655,29.53426 14.8117,42.05062 5.7885,8.47741 13.3666,16.43438 22.7042,20.56853 13.8547,6.13404 30.0879,4.38153 45.2397,4.42562 300.9813,0.87585 943.7255,0.88728 943.7255,0.88728 l 14.0313,-76.04655"
       id="path294"
       sodipodi:nodetypes="cscsscsssssscc"
       inkscape:original-d="m 1155.4195,157.96378 c 0,0 2.8536,2.65922 3.0593,5.08672 4.3868,51.78546 5.6527,90.08204 5.6527,90.08204 0,0 -2.0527,150.35469 4.5202,161.33723 12.2718,20.50455 19.4031,31.41267 27.4691,47.98391 16.9743,34.87275 43.8114,107.78995 43.8114,107.78995 0,0 728.8957,31.04029 955.5187,21.48297 28.7843,-1.21391 52.2346,-30.2972 64.1335,-31.95258 9.562,-1.33027 20.5945,9.60516 20.7373,18.33824 0.2323,14.20315 -6.2655,29.53426 -14.8117,42.05062 -5.7885,8.47741 -13.3666,16.43438 -22.7042,20.56853 -13.8547,6.13404 -30.0879,4.38153 -45.2397,4.42562 -300.9813,0.87585 -943.7255,0.88728 -943.7255,0.88728 l -14.0313,-76.04655" />
    <path
       style="fill:none;stroke:#000000;stroke-width:4;stroke-linecap:butt;stroke-linejoin:miter;stroke-dasharray:none;stroke-opacity:1"
       d="m 1253.4929,645.34889 c 0,0 10.1268,72.37922 11.4744,108.83309 1.3751,37.19756 0.2641,74.58028 -3.4771,111.61476 -0.7565,7.48846 -3.8248,22.25341 -3.8248,22.25341 l 246.526,10.43128 M 1059.1995,645.34889 c 0,0 -10.1268,72.37922 -11.4744,108.83309 -1.3751,37.19756 -0.2641,74.58028 3.4771,111.61476 0.7565,7.48846 3.8248,22.25341 3.8248,22.25341 l -246.526,10.43128"
       id="path1118"
       sodipodi:nodetypes="csscc"
       inkscape:original-d="m 1253.4929,645.34889 c 0,0 10.1268,72.37922 11.4744,108.83309 1.3751,37.19756 0.2641,74.58028 -3.4771,111.61476 -0.7565,7.48846 -3.8248,22.25341 -3.8248,22.25341 l 246.526,10.43128" />
    <path
       style="fill:none;stroke:#000000;stroke-width:4;stroke-linecap:butt;stroke-linejoin:miter;stroke-dasharray:none;stroke-opacity:1"
       d="m 1534.0945,897.78602 26.4259,-0.34771 9.3881,13.90838 -9.2652,-13.87675 c 0,0 384.9272,0.57765 549.9536,9.70423 7.7847,0.43052 17.3854,15.64693 17.3854,15.64693 l -7.8234,-10.17051 c 0,0 48.4024,3.72998 70.4981,-3.12938 23.2448,-7.21608 53.4907,-38.93076 60.4145,-38.50883 12.1752,0.74194 19.2827,18.2991 21.471,30.85922 4.3295,24.84891 -12.2589,41.52567 -26.1651,59.89297 -8.6264,11.39376 -21.1776,18.27015 -34.0755,22.77498 -16.5246,5.77151 -52.3303,4.34636 -52.3303,4.34636 l -604.6669,-1.39084 m -776.7068,-89.70905 -26.4259,-0.34771 -9.3881,13.90838 9.2652,-13.87675 c 0,0 -384.9272,0.57765 -549.9536,9.70423 -7.7847,0.43052 -17.3854,15.64693 -17.3854,15.64693 l 7.8234,-10.17051 c 0,0 -48.4024,3.72998 -70.4981,-3.12938 -23.2448,-7.21608 -53.4907,-38.93076 -60.4145,-38.50883 -12.1752,0.74194 -19.2827,18.2991 -21.471,30.85922 -4.3295,24.84891 12.2589,41.52567 26.1651,59.89297 8.6264,11.39376 21.1776,18.27015 34.0755,22.77498 16.5246,5.77151 52.3303,4.34636 52.3303,4.34636 l 604.6669,-1.39084"
       id="path1120"
       sodipodi:nodetypes="ccccsccssssscc"
       inkscape:original-d="m 1534.0945,897.78602 26.4259,-0.34771 9.3881,13.90838 -9.2652,-13.87675 c 0,0 384.9272,0.57765 549.9536,9.70423 7.7847,0.43052 17.3854,15.64693 17.3854,15.64693 l -7.8234,-10.17051 c 0,0 48.4024,3.72998 70.4981,-3.12938 23.2448,-7.21608 53.4907,-38.93076 60.4145,-38.50883 12.1752,0.74194 19.2827,18.2991 21.471,30.85922 4.3295,24.84891 -12.2589,41.52567 -26.1651,59.89297 -8.6264,11.39376 -21.1776,18.27015 -34.0755,22.77498 -16.5246,5.77151 -52.3303,4.34636 -52.3303,4.34636 l -604.6669,-1.39084" />
    <path
       style="fill:none;stroke:#000000;stroke-width:4;stroke-linecap:butt;stroke-linejoin:miter;stroke-dasharray:none;stroke-opacity:1"
       d="m 1508.7117,987.49507 -285.1219,-4.17251 c 0,0 -9.283,11.55064 -14.9677,16.63053 -5.2102,4.65601 -10.4639,7.41391 -10.4639,7.41391 m -394.1775,-19.87193 285.1219,-4.17251 c 0,0 9.283,11.55064 14.9677,16.63053 5.2102,4.65601 10.4639,7.41391 10.4639,7.41391"
       id="path1122"
       sodipodi:nodetypes="ccsc"
       inkscape:original-d="m 1508.7117,987.49507 -285.1219,-4.17251 c 0,0 -9.283,11.55064 -14.9677,16.63053 -5.2102,4.65601 -10.4639,7.41391 -10.4639,7.41391" />
    <path
       style="fill:none;stroke:#000000;stroke-width:4;stroke-linecap:butt;stroke-linejoin:miter;stroke-dasharray:none;stroke-opacity:1"
       d="m 1154.6379,963.05538 c 0,0 32.8987,0.48805 42.8738,8.79277 6.8812,5.72891 7.8745,14.53655 6.9541,22.25341 -0.7067,5.92524 -1.8507,11.16164 -9.2086,15.35154 -6.0266,3.4318 -15.1639,8.1656 -25.2352,10.9144 -5.5239,1.5076 -15.3804,1.2627 -15.3804,1.2627 m 3.4129,-58.57482 c 0,0 -32.8987,0.48805 -42.8738,8.79277 -6.8812,5.72891 -7.8745,14.53655 -6.9541,22.25341 0.7067,5.92524 1.8507,11.16164 9.2086,15.35154 6.0266,3.4318 15.1639,8.1656 25.2352,10.9144 5.5239,1.5076 15.3804,1.2627 15.3804,1.2627"
       id="path1124"
       sodipodi:nodetypes="cssssc"
       inkscape:original-d="m 1154.6379,963.05538 c 0,0 32.8987,0.48805 42.8738,8.79277 6.8812,5.72891 7.8745,14.53655 6.9541,22.25341 -0.7067,5.92524 -1.8507,11.16164 -9.2086,15.35154 -6.0266,3.4318 -15.1639,8.1656 -25.2352,10.9144 -5.5239,1.5076 -15.3804,1.2627 -15.3804,1.2627" />
    <path
       style="fill:none;stroke:#000000;stroke-width:4;stroke-linecap:butt;stroke-linejoin:miter;stroke-dasharray:none;stroke-opacity:1"
       d="m 1154.4378,892.91808 c 0,0 39.5067,-0.53526 59.0685,3.4771 8.6915,1.78274 17.9549,6.19048 25.0351,9.04044 2.8038,1.12858 6.9242,-1.93388 7.6496,-4.86793 7.892,-31.92264 13.2129,-101.53118 13.2129,-101.53118 0,0 4.9552,-41.34959 1.3909,-61.8923 -2.0334,-11.71954 -9.7943,-22.98719 -19.4718,-29.90302 -19.2573,-13.76187 -68.8465,-17.38548 -68.8465,-17.38548 l -16.7672,-0.44773 m 2.5453,203.5101 c 0,0 -39.5067,-0.53526 -59.0685,3.4771 -8.6915,1.78274 -17.9549,6.19048 -25.0351,9.04044 -2.8038,1.12858 -6.9242,-1.93388 -7.6496,-4.86793 -7.892,-31.92264 -13.2129,-101.53118 -13.2129,-101.53118 0,0 -4.9552,-41.34959 -1.3909,-61.8923 2.0334,-11.71954 9.7943,-22.98719 19.4718,-29.90302 19.2573,-13.76187 68.8465,-17.38548 68.8465,-17.38548 l 16.7672,-0.44773"
       id="path1185"
       sodipodi:nodetypes="cssscsscc"
       inkscape:original-d="m 1154.4378,892.91808 c 0,0 39.5067,-0.53526 59.0685,3.4771 8.6915,1.78274 17.9549,6.19048 25.0351,9.04044 2.8038,1.12858 6.9242,-1.93388 7.6496,-4.86793 7.892,-31.92264 13.2129,-101.53118 13.2129,-101.53118 0,0 4.9552,-41.34959 1.3909,-61.8923 -2.0334,-11.71954 -9.7943,-22.98719 -19.4718,-29.90302 -19.2573,-13.76187 -68.8465,-17.38548 -68.8465,-17.38548 l -16.7672,-0.44773" />
    <path
       style="fill:none;stroke:#000000;stroke-width:4;stroke-linecap:butt;stroke-linejoin:miter;stroke-dasharray:none;stroke-opacity:1"
       d="m 1279.6976,983.56843 c 0,0 -2.8584,-14.94462 0.4495,-21.18557 1.6446,-3.10269 5.0796,-6.13394 8.591,-6.09727 71.7622,0.74939 217.5396,4.08814 217.5396,4.08814 l 4.1725,-11.1267 c 0,0 -4.3431,-17.38337 -7.6211,-25.95213 -3.3285,-8.70082 -12.1983,-25.85659 -12.1983,-25.85659 m -457.636,86.13012 c 0,0 2.8584,-14.94462 -0.4495,-21.18557 -1.6446,-3.10269 -5.0796,-6.13394 -8.591,-6.09727 -71.7622,0.74939 -217.5396,4.08814 -217.5396,4.08814 l -4.1725,-11.1267 c 0,0 4.3431,-17.38337 7.6211,-25.95213 3.3285,-8.70082 12.1983,-25.85659 12.1983,-25.85659"
       id="path1382"
       sodipodi:nodetypes="cssccsc"
       inkscape:original-d="m 1279.6976,983.56843 c 0,0 -2.8584,-14.94462 0.4495,-21.18557 1.6446,-3.10269 5.0796,-6.13394 8.591,-6.09727 71.7622,0.74939 217.5396,4.08814 217.5396,4.08814 l 4.1725,-11.1267 c 0,0 -4.3431,-17.38337 -7.6211,-25.95213 -3.3285,-8.70082 -12.1983,-25.85659 -12.1983,-25.85659" />
    <path
       style="fill:none;stroke:#000000;stroke-width:4;stroke-linecap:butt;stroke-linejoin:miter;stroke-dasharray:none;stroke-opacity:1"
       d="m 1542.7003,897.5687 c 0,0 13.5759,20.98084 17.8201,32.90201 6.2518,17.56017 11.1267,57.02437 11.1267,57.02437 M 769.9921,897.5687 c 0,0 -13.5759,20.98084 -17.8201,32.90201 -6.2518,17.56017 -11.1267,57.02437 -11.1267,57.02437"
       id="path1384"
       sodipodi:nodetypes="csc"
       inkscape:original-d="m 1542.7003,897.5687 c 0,0 13.5759,20.98084 17.8201,32.90201 6.2518,17.56017 11.1267,57.02437 11.1267,57.02437" />
    <path
       style="fill:none;stroke:#000000;stroke-width:4;stroke-linecap:butt;stroke-linejoin:miter;stroke-dasharray:none;stroke-opacity:1"
       d="m 1567.436,959.92418 c 0,0 392.828,0.47735 584.1521,4.17252 7.7042,0.1488 15.5325,0.48528 20.9011,6.0129 4.6612,4.79932 4.8679,19.47173 4.8679,19.47173 M 745.2564,959.92418 c 0,0 -392.828,0.47735 -584.1521,4.17252 -7.7042,0.1488 -15.5325,0.48528 -20.9011,6.0129 -4.6612,4.79932 -4.8679,19.47173 -4.8679,19.47173"
       id="path1386"
       sodipodi:nodetypes="cssc"
       inkscape:original-d="m 1567.436,959.92418 c 0,0 392.828,0.47735 584.1521,4.17252 7.7042,0.1488 15.5325,0.48528 20.9011,6.0129 4.6612,4.79932 4.8679,19.47173 4.8679,19.47173" />
    <path
       style="fill:none;stroke:#000000;stroke-width:4;stroke-linecap:butt;stroke-linejoin:miter;stroke-dasharray:none;stroke-opacity:1"
       d="m 1240.6276,575.11157 c 0,0 -10.0051,-17.5062 -18.0809,-22.94883 -12.4102,-8.36373 -28.3295,-10.21031 -43.116,-12.51754 -8.4774,-1.32278 -24.8699,-1.43302 -24.8699,-1.43302 m -82.496,36.89939 c 0,0 10.0051,-17.5062 18.0809,-22.94883 12.4102,-8.36373 28.3295,-10.21031 43.116,-12.51754 8.4774,-1.32278 24.8699,-1.43302 24.8699,-1.43302"
       id="path1388"
       sodipodi:nodetypes="cssc"
       inkscape:original-d="m 1240.6276,575.11157 c 0,0 -10.0051,-17.5062 -18.0809,-22.94883 -12.4102,-8.36373 -28.3295,-10.21031 -43.116,-12.51754 -8.4774,-1.32278 -24.8699,-1.43302 -24.8699,-1.43302" />
    <path
       style="fill:none;stroke:#000000;stroke-width:4;stroke-linecap:butt;stroke-linejoin:miter;stroke-dasharray:none;stroke-opacity:1"
       d="m 1171.4334,538.94978 c 0,0 1.6259,15.29215 -0.3477,15.99463 -2.1982,0.7824 -16.6249,0.86055 -16.6249,0.86055 m -13.2018,-16.85518 c 0,0 -1.6259,15.29215 0.3477,15.99463 2.1982,0.7824 16.6249,0.86055 16.6249,0.86055"
       id="path1390"
       sodipodi:nodetypes="csc"
       inkscape:original-d="m 1171.4334,538.94978 c 0,0 1.6259,15.29215 -0.3477,15.99463 -2.1982,0.7824 -16.6249,0.86055 -16.6249,0.86055" />
    <path
       style="fill:none;stroke:#000000;stroke-width:4;stroke-linecap:butt;stroke-linejoin:miter;stroke-dasharray:none;stroke-opacity:1"
       d="m 1173.172,690.05939 c 0,0 1.3082,-13.89013 -1.3909,-17.24144 -2.5387,-3.15199 -17.2203,-2.84496 -17.2203,-2.84496 m -15.0404,20.0864 c 0,0 -1.3082,-13.89013 1.3909,-17.24144 2.5387,-3.15199 17.2203,-2.84496 17.2203,-2.84496"
       id="path1392"
       sodipodi:nodetypes="csc"
       inkscape:original-d="m 1173.172,690.05939 c 0,0 1.3082,-13.89013 -1.3909,-17.24144 -2.5387,-3.15199 -17.2203,-2.84496 -17.2203,-2.84496" />
    <path
       style="fill:none;stroke:#000000;stroke-width:4;stroke-linecap:butt;stroke-linejoin:miter;stroke-dasharray:none;stroke-opacity:1"
       d="m 1433.2587,577.71939 c 0,0 11.4416,17.40896 14.6038,27.2952 4.1899,13.09933 5.2156,41.02972 5.2156,41.02972 M 879.4337,577.71939 c 0,0 -11.4416,17.40896 -14.6038,27.2952 -4.1899,13.09933 -5.2156,41.02972 -5.2156,41.02972"
       id="path1396"
       sodipodi:nodetypes="csc"
       inkscape:original-d="m 1433.2587,577.71939 c 0,0 11.4416,17.40896 14.6038,27.2952 4.1899,13.09933 5.2156,41.02972 5.2156,41.02972" />
    <path
       style="fill:none;stroke:#000000;stroke-width:4;stroke-linecap:butt;stroke-linejoin:miter;stroke-dasharray:none;stroke-opacity:1"
       d="m 1459.1631,579.11023 c 0,0 10.7408,16.09385 14.0822,25.20894 4.943,13.48426 7.128,41.899 7.128,41.899 m -626.844,-67.10794 c 0,0 -10.7408,16.09385 -14.0822,25.20894 -4.943,13.48426 -7.128,41.899 -7.128,41.899"
       id="path1398"
       sodipodi:nodetypes="csc"
       inkscape:original-d="m 1459.1631,579.11023 c 0,0 10.7408,16.09385 14.0822,25.20894 4.943,13.48426 7.128,41.899 7.128,41.899" />
    <path
       style="fill:none;stroke:#000000;stroke-width:4;stroke-linecap:butt;stroke-linejoin:miter;stroke-dasharray:none;stroke-opacity:1"
       d="m 1480.721,579.80565 c 0,0 10.6678,14.22224 13.9084,23.47039 4.6021,13.13362 6.7804,43.11598 6.7804,43.11598 M 831.9714,579.80565 c 0,0 -10.6678,14.22224 -13.9084,23.47039 -4.6021,13.13362 -6.7804,43.11598 -6.7804,43.11598"
       id="path1400"
       sodipodi:nodetypes="csc"
       inkscape:original-d="m 1480.721,579.80565 c 0,0 10.6678,14.22224 13.9084,23.47039 4.6021,13.13362 6.7804,43.11598 6.7804,43.11598" />
    <path
       style="fill:none;stroke:#000000;stroke-width:4;stroke-linecap:butt;stroke-linejoin:miter;stroke-dasharray:none;stroke-opacity:1"
       d="m 1260.9686,645.6966 c 0,0 1.2974,-3.53649 1.3909,-5.38949 0.251,-4.97684 -2.1457,-10.06655 -2.2602,-14.77766 -0.066,-2.705 3.2064,-5.48577 5.9111,-5.56335 59.7738,-1.71457 185.1554,2.26011 185.1554,2.26011 m -399.442,23.47039 c 0,0 -1.2974,-3.53649 -1.3909,-5.38949 -0.251,-4.97684 2.1457,-10.06655 2.2602,-14.77766 0.066,-2.705 -3.2064,-5.48577 -5.9111,-5.56335 -59.7738,-1.71457 -185.1554,2.26011 -185.1554,2.26011"
       id="path1402"
       sodipodi:nodetypes="csssc"
       inkscape:original-d="m 1260.9686,645.6966 c 0,0 1.2974,-3.53649 1.3909,-5.38949 0.251,-4.97684 -2.1457,-10.06655 -2.2602,-14.77766 -0.066,-2.705 3.2064,-5.48577 5.9111,-5.56335 59.7738,-1.71457 185.1554,2.26011 185.1554,2.26011" />
    <path
       style="fill:none;stroke:#000000;stroke-width:4;stroke-linecap:butt;stroke-linejoin:miter;stroke-dasharray:none;stroke-opacity:1"
       d="m 1498.4542,623.09548 c 0,0 512.2671,-3.32487 687.2479,-0.52156 4.1542,0.0666 8.4458,2.82101 10.779,6.25877 3.0929,4.55707 2.434,16.34235 2.434,16.34235 M 814.2382,623.09548 c 0,0 -512.2671,-3.32487 -687.2479,-0.52156 -4.1542,0.0666 -8.4458,2.82101 -10.779,6.25877 -3.0929,4.55707 -2.434,16.34235 -2.434,16.34235"
       id="path1404"
       sodipodi:nodetypes="cssc"
       inkscape:original-d="m 1498.4542,623.09548 c 0,0 512.2671,-3.32487 687.2479,-0.52156 4.1542,0.0666 8.4458,2.82101 10.779,6.25877 3.0929,4.55707 2.434,16.34235 2.434,16.34235" />
    <path
       style="fill:none;stroke:#000000;stroke-width:4;stroke-linecap:butt;stroke-linejoin:miter;stroke-dasharray:none;stroke-opacity:1"
       d="m 2266.2838,560.68162 c 0,0 -4.2931,1.33457 -5.8241,2.26011 -1.0614,0.64164 -3.014,1.02126 -2.9556,2.26012 0.103,2.18444 3.9788,1.96996 5.5634,3.47709 1.6891,1.60652 1.7608,5.08482 3.9987,5.73721 2.1698,0.63252 4.12,-3.33859 6.2587,-2.60782 4.1016,1.40147 6.7804,11.99598 6.7804,11.99598 M 46.4086,560.68162 c 0,0 4.2931,1.33457 5.8241,2.26011 1.0614,0.64164 3.014,1.02126 2.9556,2.26012 -0.103,2.18444 -3.9788,1.96996 -5.5634,3.47709 -1.6891,1.60652 -1.7608,5.08482 -3.9987,5.73721 -2.1698,0.63252 -4.12,-3.33859 -6.2587,-2.60782 -4.1016,1.40147 -6.7804,11.99598 -6.7804,11.99598"
       id="path1406"
       sodipodi:nodetypes="csssssc"
       inkscape:original-d="m 2266.2838,560.68162 c 0,0 -4.2931,1.33457 -5.8241,2.26011 -1.0614,0.64164 -3.014,1.02126 -2.9556,2.26012 0.103,2.18444 3.9788,1.96996 5.5634,3.47709 1.6891,1.60652 1.7608,5.08482 3.9987,5.73721 2.1698,0.63252 4.12,-3.33859 6.2587,-2.60782 4.1016,1.40147 6.7804,11.99598 6.7804,11.99598" />
    <path
       style="fill:none;stroke:#000000;stroke-width:4;stroke-linecap:butt;stroke-linejoin:miter;stroke-dasharray:none;stroke-opacity:1"
       d="m 1329.8988,985.68389 c 0,0 -3.2832,43.57641 -6.3926,75.72731 -0.2243,2.3188 -3.0824,4.5417 -5.4091,4.4256 -3.4728,-0.1732 -7.3895,-3.899 -7.376,-7.3761 0.091,-23.5775 -1.7211,-73.51442 -1.7211,-73.51442 m -326.2064,0.73761 c 0,0 3.2832,43.57641 6.3926,75.72731 0.2243,2.3188 3.0824,4.5417 5.4091,4.4256 3.4728,-0.1732 7.3895,-3.899 7.376,-7.3761 -0.091,-23.5775 1.7211,-73.51442 1.7211,-73.51442"
       id="path1408"
       sodipodi:nodetypes="csssc"
       inkscape:original-d="m 1329.8988,985.68389 c 0,0 -3.2832,43.57641 -6.3926,75.72731 -0.2243,2.3188 -3.0824,4.5417 -5.4091,4.4256 -3.4728,-0.1732 -7.3895,-3.899 -7.376,-7.3761 0.091,-23.5775 -1.7211,-73.51442 -1.7211,-73.51442" />
    <path
       style="fill:none;stroke:#000000;stroke-width:4;stroke-linecap:butt;stroke-linejoin:miter;stroke-dasharray:none;stroke-opacity:1"
       d="m 1154.8409,1002.157 c 0,0 4.7146,0.1572 6.6384,0 2.1565,-0.1762 2.7882,3.7388 2.7046,5.9009 -0.098,2.5295 -1.5572,5.2719 -3.688,6.6384 -1.799,1.1537 -6.3926,0.4917 -6.3926,0.4917 m 3.7482,-13.031 c 0,0 -4.7146,0.1572 -6.6384,0 -2.1565,-0.1762 -2.7882,3.7388 -2.7046,5.9009 0.098,2.5295 1.5572,5.2719 3.688,6.6384 1.799,1.1537 6.3926,0.4917 6.3926,0.4917"
       id="path1410"
       sodipodi:nodetypes="csssc"
       inkscape:original-d="m 1154.8409,1002.157 c 0,0 4.7146,0.1572 6.6384,0 2.1565,-0.1762 2.7882,3.7388 2.7046,5.9009 -0.098,2.5295 -1.5572,5.2719 -3.688,6.6384 -1.799,1.1537 -6.3926,0.4917 -6.3926,0.4917" />
    <path
       style="fill:none;stroke:#000000;stroke-width:4;stroke-linecap:butt;stroke-linejoin:miter;stroke-dasharray:none;stroke-opacity:1"
       d="m 1191.7211,973.14463 c 2.0599,-0.66199 5.1544,0.67368 5.9008,2.70455 0.936,2.54666 -1.4166,5.5708 -3.4421,7.37603 -1.5478,1.37951 -4.1633,3.09808 -5.9009,1.96694 -1.4489,-0.94319 -0.8557,-3.4731 -0.4917,-5.16322 0.5564,-2.58377 1.4176,-6.07566 3.9339,-6.8843 z m -70.7498,0 c -2.0599,-0.66199 -5.1544,0.67368 -5.9008,2.70455 -0.936,2.54666 1.4166,5.5708 3.4421,7.37603 1.5478,1.37951 4.1633,3.09808 5.9009,1.96694 1.4489,-0.94319 0.8557,-3.4731 0.4917,-5.16322 -0.5564,-2.58377 -1.4176,-6.07566 -3.9339,-6.8843 z"
       id="path1412"
       sodipodi:nodetypes="ssssss"
       inkscape:original-d="m 1191.7211,973.14463 c 2.0599,-0.66199 5.1544,0.67368 5.9008,2.70455 0.936,2.54666 -1.4166,5.5708 -3.4421,7.37603 -1.5478,1.37951 -4.1633,3.09808 -5.9009,1.96694 -1.4489,-0.94319 -0.8557,-3.4731 -0.4917,-5.16322 0.5564,-2.58377 1.4176,-6.07566 3.9339,-6.8843 z" />
    <path
       style="fill:none;stroke:#000000;stroke-width:4;stroke-linecap:butt;stroke-linejoin:miter;stroke-dasharray:none;stroke-opacity:1"
       d="m 1196.1467,1007.812 -1.2293,-1.7211 h -2.9505 l -3.1962,5.9008 m -72.225,-4.1797 1.2293,-1.7211 h 2.9505 l 3.1962,5.9008"
       id="path1414"
       inkscape:original-d="m 1196.1467,1007.812 -1.2293,-1.7211 h -2.9505 l -3.1962,5.9008" />
    <path
       style="fill:none;stroke:#000000;stroke-width:4;stroke-linecap:butt;stroke-linejoin:miter;stroke-dasharray:none;stroke-opacity:1"
       d="m 1204.9979,989.61777 22.374,-34.42149 14.7521,-38.1095 m -134.4295,72.53099 -22.374,-34.42149 -14.7521,-38.1095"
       id="path1416"
       inkscape:original-d="m 1204.9979,989.61777 22.374,-34.42149 14.7521,-38.1095" />
    <path
       style="fill:none;stroke:#000000;stroke-width:4;stroke-linecap:butt;stroke-linejoin:miter;stroke-dasharray:none;stroke-opacity:1"
       d="m 1198.8512,468.62397 c 0,0 -14.0614,-12.89119 -22.8657,-15.73554 -7.0206,-2.2681 -21.2061,-2.21281 -21.2061,-2.21281 m -40.9382,17.94835 c 0,0 14.0614,-12.89119 22.8657,-15.73554 7.0206,-2.2681 21.2061,-2.21281 21.2061,-2.21281"
       id="path1418"
       sodipodi:nodetypes="csc"
       inkscape:original-d="m 1198.8512,468.62397 c 0,0 -14.0614,-12.89119 -22.8657,-15.73554 -7.0206,-2.2681 -21.2061,-2.21281 -21.2061,-2.21281" />
    <path
       style="fill:none;stroke:#000000;stroke-width:4;stroke-linecap:butt;stroke-linejoin:miter;stroke-dasharray:none;stroke-opacity:1"
       d="m 1155.5171,294.36519 c 0,0 4.0933,-2.55305 5.5319,-4.54856 2.1525,-2.98571 1.9254,-7.1487 2.2128,-10.81818 0.7047,-8.9969 -1.2293,-27.04546 -1.2293,-27.04546 0,0 -1.9491,2.91428 -3.4421,3.68802 -1.5569,0.80686 -3.9339,0.24587 -3.9339,0.24587 m 2.5188,38.47831 c 0,0 -4.0933,-2.55305 -5.5319,-4.54856 -2.1525,-2.98571 -1.9254,-7.1487 -2.2128,-10.81818 -0.7047,-8.9969 1.2293,-27.04546 1.2293,-27.04546 0,0 1.9491,2.91428 3.4421,3.68802 1.5569,0.80686 3.9339,0.24587 3.9339,0.24587"
       id="path1420"
       sodipodi:nodetypes="csscsc"
       inkscape:original-d="m 1155.5171,294.36519 c 0,0 4.0933,-2.55305 5.5319,-4.54856 2.1525,-2.98571 1.9254,-7.1487 2.2128,-10.81818 0.7047,-8.9969 -1.2293,-27.04546 -1.2293,-27.04546 0,0 -1.9491,2.91428 -3.4421,3.68802 -1.5569,0.80686 -3.9339,0.24587 -3.9339,0.24587" />
    <path
       style="fill:none;stroke:#000000;stroke-width:4;stroke-linecap:butt;stroke-linejoin:miter;stroke-dasharray:none;stroke-opacity:1"
       d="m 1508.6099,984.26023 c 0,0 0.3787,9.41378 3.1293,12.86525 2.7459,3.44552 10.7238,3.43252 11.5763,7.75512 0.9063,4.5956 -1.4604,22.2641 -2.0863,25.035 -1.2411,5.4945 -13.0524,4.4736 -13.5607,10.0836 -0.6052,6.6793 6.5119,42.5005 11.4745,44.8545 4.1427,1.9651 13.5606,4.0855 13.5606,4.0855 0,0 -0.8926,-14.5131 2.434,-20.4278 3.1502,-5.601 8.5279,-7.9272 14.5827,-10.0799 4.0407,-1.4366 17.1392,-0.5785 21.3477,0.2459 6.6322,1.2992 7.8982,3.9357 12.5067,8.8789 5.0737,5.4422 4.015,11.6205 5.1102,17.6452 1.6011,8.8072 4.1385,18.0605 2.0862,26.7736 -0.6198,2.6313 -4.1725,6.9542 -4.1725,6.9542 M 804.0825,984.26023 c 0,0 -0.3787,9.41378 -3.1293,12.86525 -2.7459,3.44552 -10.7238,3.43252 -11.5763,7.75512 -0.9063,4.5956 1.4604,22.2641 2.0863,25.035 1.2411,5.4945 13.0524,4.4736 13.5607,10.0836 0.6052,6.6793 -6.5119,42.5005 -11.4745,44.8545 -4.1427,1.9651 -13.5606,4.0855 -13.5606,4.0855 0,0 0.8926,-14.5131 -2.434,-20.4278 -3.1502,-5.601 -8.5279,-7.9272 -14.5827,-10.0799 -4.0407,-1.4366 -17.1392,-0.5785 -21.3477,0.2459 -6.6322,1.2992 -7.8982,3.9357 -12.5067,8.8789 -5.0737,5.4422 -4.015,11.6205 -5.1102,17.6452 -1.6011,8.8072 -4.1385,18.0605 -2.0862,26.7736 0.6198,2.6313 4.1725,6.9542 4.1725,6.9542"
       id="path1460"
       sodipodi:nodetypes="cssssscssssssc"
       inkscape:original-d="m 1508.6099,984.26023 c 0,0 0.3787,9.41378 3.1293,12.86525 2.7459,3.44552 10.7238,3.43252 11.5763,7.75512 0.9063,4.5956 -1.4604,22.2641 -2.0863,25.035 -1.2411,5.4945 -13.0524,4.4736 -13.5607,10.0836 -0.6052,6.6793 6.5119,42.5005 11.4745,44.8545 4.1427,1.9651 13.5606,4.0855 13.5606,4.0855 0,0 -0.8926,-14.5131 2.434,-20.4278 3.1502,-5.601 8.5279,-7.9272 14.5827,-10.0799 4.0407,-1.4366 17.1392,-0.5785 21.3477,0.2459 6.6322,1.2992 7.8982,3.9357 12.5067,8.8789 5.0737,5.4422 4.015,11.6205 5.1102,17.6452 1.6011,8.8072 4.1385,18.0605 2.0862,26.7736 -0.6198,2.6313 -4.1725,6.9542 -4.1725,6.9542" />
    <path
       style="fill:none;stroke:#000000;stroke-width:4;stroke-linecap:butt;stroke-linejoin:miter;stroke-dasharray:none;stroke-opacity:1"
       d="m 1532.7905,1086.853 0.6085,21.2973 c 0,0 4.5187,-14.9088 10.4313,-19.124 7.3697,-5.2541 17.9669,-6.6079 26.7737,-4.5203 6.2934,1.4918 11.9882,6.141 15.6469,11.4744 3.2605,4.7529 4.5202,16.6901 4.5202,16.6901 m -810.8692,-25.8175 -0.6085,21.2973 c 0,0 -4.5187,-14.9088 -10.4313,-19.124 -7.3697,-5.2541 -17.9669,-6.6079 -26.7737,-4.5203 -6.2934,1.4918 -11.9882,6.141 -15.6469,11.4744 -3.2605,4.7529 -4.5202,16.6901 -4.5202,16.6901"
       id="path1462"
       sodipodi:nodetypes="ccsssc"
       inkscape:original-d="m 1532.7905,1086.853 0.6085,21.2973 c 0,0 4.5187,-14.9088 10.4313,-19.124 7.3697,-5.2541 17.9669,-6.6079 26.7737,-4.5203 6.2934,1.4918 11.9882,6.141 15.6469,11.4744 3.2605,4.7529 4.5202,16.6901 4.5202,16.6901" />
    <path
       style="fill:none;stroke:#000000;stroke-width:4;stroke-linecap:butt;stroke-linejoin:miter;stroke-dasharray:none;stroke-opacity:1"
       d="m 1532.7422,1086.8058 c 0,0 0.6881,-9.3372 3.7862,-13.7742 3.4484,-4.9389 9.7743,-7.7006 15.647,-9.0404 6.006,-1.3702 16.0839,-0.1068 21.8708,2.0055 5.7715,2.1066 14.184,17.5825 14.184,17.5825 m -808.28,3.2266 c 0,0 -0.6881,-9.3372 -3.7862,-13.7742 -3.4484,-4.9389 -9.7743,-7.7006 -15.647,-9.0404 -6.006,-1.3702 -16.0839,-0.1068 -21.8708,2.0055 -5.7715,2.1066 -14.184,17.5825 -14.184,17.5825"
       id="path1464"
       sodipodi:nodetypes="csssc"
       inkscape:original-d="m 1532.7422,1086.8058 c 0,0 0.6881,-9.3372 3.7862,-13.7742 3.4484,-4.9389 9.7743,-7.7006 15.647,-9.0404 6.006,-1.3702 16.0839,-0.1068 21.8708,2.0055 5.7715,2.1066 14.184,17.5825 14.184,17.5825" />
    <path
       style="fill:none;stroke:#000000;stroke-width:4;stroke-linecap:butt;stroke-linejoin:miter;stroke-dasharray:none;stroke-opacity:1"
       d="m 1522.62,1003.8374 c 0,0 11.0114,4.0368 13.213,7.6496 1.4939,2.4514 1.5756,15.156 3.1294,22.6012 1.787,8.5627 7.0982,25.2634 7.0982,25.2634 m -755.9882,-55.5142 c 0,0 -11.0114,4.0368 -13.213,7.6496 -1.4939,2.4514 -1.5756,15.156 -3.1294,22.6012 -1.787,8.5627 -7.0982,25.2634 -7.0982,25.2634"
       id="path1466"
       sodipodi:nodetypes="cssc"
       inkscape:original-d="m 1522.62,1003.8374 c 0,0 11.0114,4.0368 13.213,7.6496 1.4939,2.4514 1.5756,15.156 3.1294,22.6012 1.787,8.5627 7.0982,25.2634 7.0982,25.2634" />
    <path
       style="fill:none;stroke:#000000;stroke-width:4;stroke-linecap:butt;stroke-linejoin:miter;stroke-dasharray:none;stroke-opacity:1"
       d="m 1572.4443,1058.8141 -17.835,-67.49422 1.3909,-4.17251 -58.2115,-237.75258 c 0,0 11.2328,-0.9234 15.9911,-3.02392 6.35,-4.40816 7.411,-6.40747 6.9577,-14.29466 -0.055,-6.81826 -1.5876,-9.0841 -4.5202,-11.31292 -3.0799,-2.34075 -11.3304,-3.00388 -11.3304,-3.00388 m -764.6388,341.05469 17.835,-67.49422 -1.3909,-4.17251 58.2115,-237.75258 c 0,0 -11.2328,-0.9234 -15.9911,-3.02392 -6.35,-4.40816 -7.411,-6.40747 -6.9577,-14.29466 0.055,-6.81826 1.5876,-9.0841 4.5202,-11.31292 3.0799,-2.34075 11.3304,-3.00388 11.3304,-3.00388"
       id="path1468"
       sodipodi:nodetypes="ccccccsc"
       inkscape:original-d="m 1572.4443,1058.8141 -17.835,-67.49422 1.3909,-4.17251 -58.2115,-237.75258 c 0,0 11.2328,-0.9234 15.9911,-3.02392 6.35,-4.40816 7.411,-6.40747 6.9577,-14.29466 -0.055,-6.81826 -1.5876,-9.0841 -4.5202,-11.31292 -3.0799,-2.34075 -11.3304,-3.00388 -11.3304,-3.00388" />
    <path
       style="fill:none;stroke:#000000;stroke-width:4;stroke-linecap:butt;stroke-linejoin:miter;stroke-dasharray:none;stroke-opacity:1"
       d="m 1497.57,749.39479 c 0,0 -14.5649,0.31571 -21.6063,-0.89909 -2.6045,-0.44936 -8.1079,-2.48489 -8.1079,-2.48489 m -652.7334,3.38398 c 0,0 14.5649,0.31571 21.6063,-0.89909 2.6045,-0.44936 8.1079,-2.48489 8.1079,-2.48489"
       id="path1470"
       sodipodi:nodetypes="csc"
       inkscape:original-d="m 1497.57,749.39479 c 0,0 -14.5649,0.31571 -21.6063,-0.89909 -2.6045,-0.44936 -8.1079,-2.48489 -8.1079,-2.48489" />
    <path
       style="fill:none;stroke:#000000;stroke-width:4;stroke-linecap:butt;stroke-linejoin:miter;stroke-dasharray:none;stroke-opacity:1"
       d="m 1456.6273,734.83936 c 0,0 -2.0075,-8.62807 0.4829,-11.54025 0.8496,-0.99342 1.3657,-2.21182 9.8464,-4.47418 5.5468,-1.47971 11.7713,-1.51764 11.7713,-1.51764 m -622.6628,17.53207 c 0,0 2.0075,-8.62807 -0.4829,-11.54025 -0.8496,-0.99342 -1.3657,-2.21182 -9.8464,-4.47418 -5.5468,-1.47971 -11.7713,-1.51764 -11.7713,-1.51764"
       id="path1472"
       sodipodi:nodetypes="cssc"
       inkscape:original-d="m 1456.6273,734.83936 c 0,0 -2.0075,-8.62807 0.4829,-11.54025 0.8496,-0.99342 1.3657,-2.21182 9.8464,-4.47418 5.5468,-1.47971 11.7713,-1.51764 11.7713,-1.51764" />
    <path
       style="fill:none;stroke:#000000;stroke-width:4;stroke-linecap:butt;stroke-linejoin:miter;stroke-dasharray:none;stroke-opacity:1"
       d="m 1469.7682,718.02019 -14.9515,-71.62817 m -611.8925,71.62817 14.9515,-71.62817"
       id="path1474"
       inkscape:original-d="m 1469.7682,718.02019 -14.9515,-71.62817" />
    <path
       style="fill:none;stroke:#000000;stroke-width:4;stroke-linecap:butt;stroke-linejoin:miter;stroke-dasharray:none;stroke-opacity:1"
       d="m 1490.1962,710.19672 -16.2555,-62.76157 m -651.4445,62.76157 16.2555,-62.76157"
       id="path1476"
       sodipodi:nodetypes="cc"
       inkscape:original-d="m 1490.1962,710.19672 -16.2555,-62.76157" />
    <path
       style="fill:none;stroke:#000000;stroke-width:4;stroke-linecap:butt;stroke-linejoin:miter;stroke-dasharray:none;stroke-opacity:1"
       d="m 1455.7791,725.16059 c 0,0 -5.97,-10.49631 -6.2799,-16.30378 -0.2055,-3.85098 4.2954,-23.9076 4.2954,-23.9076 0,0 1.5886,-6.68721 1.4294,-8.75963 -0.5815,-7.57265 -5.9707,-29.44985 -5.9707,-29.44985 m -592.34,78.42086 c 0,0 5.97,-10.49631 6.2799,-16.30378 0.2055,-3.85098 -4.2954,-23.9076 -4.2954,-23.9076 0,0 -1.5886,-6.68721 -1.4294,-8.75963 0.5815,-7.57265 5.9707,-29.44985 5.9707,-29.44985"
       id="path1478"
       sodipodi:nodetypes="cscsc"
       inkscape:original-d="m 1455.7791,725.16059 c 0,0 -5.97,-10.49631 -6.2799,-16.30378 -0.2055,-3.85098 4.2954,-23.9076 4.2954,-23.9076 0,0 1.5886,-6.68721 1.4294,-8.75963 -0.5815,-7.57265 -5.9707,-29.44985 -5.9707,-29.44985" />
    <path
       style="fill:none;stroke:#000000;stroke-width:4;stroke-linecap:butt;stroke-linejoin:miter;stroke-dasharray:none;stroke-opacity:1"
       d="m 1522.62,1003.8374 c 0,0 6.6865,-3.3779 7.6497,-6.60646 1.7858,-5.98564 -40.3343,-192.28337 -40.3343,-192.28337 L 1477.049,748.67828 M 790.0724,1003.8374 c 0,0 -6.6865,-3.3779 -7.6497,-6.60646 -1.7858,-5.98564 40.3343,-192.28337 40.3343,-192.28337 l 12.8864,-56.26929"
       id="path1480"
       sodipodi:nodetypes="cscc"
       inkscape:original-d="m 1522.62,1003.8374 c 0,0 6.6865,-3.3779 7.6497,-6.60646 1.7858,-5.98564 -40.3343,-192.28337 -40.3343,-192.28337 l -12.8864,-56.26929" />
    <path
       style="fill:none;stroke:#000000;stroke-width:4;stroke-linecap:butt;stroke-linejoin:miter;stroke-dasharray:none;stroke-opacity:1"
       d="m 1472.7958,748.04252 c 0,0 -3.0132,18.56524 -3.723,23.17722 -0.2891,1.87884 2.8608,2.72194 3.4771,4.52023 0.392,1.14387 -3.9291,5.36564 -3.4771,8.34503 1.0986,7.24077 3.578,31.71621 5.5633,34.42324 2.1551,2.93868 10.2133,1.73554 12.1066,5.78813 2.5268,5.40863 28.9367,114.96272 25.3828,122.04605 -1.6621,3.31268 -5.1524,15.07444 -5.1524,15.07444 l 1.7386,26.42592 M 839.8966,748.04252 c 0,0 3.0132,18.56524 3.723,23.17722 0.2891,1.87884 -2.8608,2.72194 -3.4771,4.52023 -0.392,1.14387 3.9291,5.36564 3.4771,8.34503 -1.0986,7.24077 -3.578,31.71621 -5.5633,34.42324 -2.1551,2.93868 -10.2133,1.73554 -12.1066,5.78813 -2.5268,5.40863 -28.9367,114.96272 -25.3828,122.04605 1.6621,3.31268 5.1524,15.07444 5.1524,15.07444 l -1.7386,26.42592"
       id="path1482"
       sodipodi:nodetypes="csssssscc"
       inkscape:original-d="m 1472.7958,748.04252 c 0,0 -3.0132,18.56524 -3.723,23.17722 -0.2891,1.87884 2.8608,2.72194 3.4771,4.52023 0.392,1.14387 -3.9291,5.36564 -3.4771,8.34503 1.0986,7.24077 3.578,31.71621 5.5633,34.42324 2.1551,2.93868 10.2133,1.73554 12.1066,5.78813 2.5268,5.40863 28.9367,114.96272 25.3828,122.04605 -1.6621,3.31268 -5.1524,15.07444 -5.1524,15.07444 l 1.7386,26.42592" />
    <path
       style="fill:none;stroke:#000000;stroke-width:4;stroke-linecap:butt;stroke-linejoin:miter;stroke-dasharray:none;stroke-opacity:1"
       d="m 1563.6498,1024.3523 c 0,0 8.0652,-0.3795 9.7358,1.0431 4.2703,3.6366 4.0088,19.936 6.9542,26.0782 0.7666,1.5987 4.6997,-2.7394 5.2157,-1.0431 1.9696,6.4751 4.9118,11.8156 5.2156,18.0809 0.2455,5.0634 -2.7817,14.9515 -2.7817,14.9515 m -838.9468,-59.1106 c 0,0 -8.0652,-0.3795 -9.7358,1.0431 -4.2703,3.6366 -4.0088,19.936 -6.9542,26.0782 -0.7666,1.5987 -4.6997,-2.7394 -5.2157,-1.0431 -1.9696,6.4751 -4.9118,11.8156 -5.2156,18.0809 -0.2455,5.0634 2.7817,14.9515 2.7817,14.9515"
       id="path1484"
       sodipodi:nodetypes="cssssc"
       inkscape:original-d="m 1563.6498,1024.3523 c 0,0 8.0652,-0.3795 9.7358,1.0431 4.2703,3.6366 4.0088,19.936 6.9542,26.0782 0.7666,1.5987 4.6997,-2.7394 5.2157,-1.0431 1.9696,6.4751 4.9118,11.8156 5.2156,18.0809 0.2455,5.0634 -2.7817,14.9515 -2.7817,14.9515" />
    <path
       style="fill:none;stroke:#000000;stroke-width:4;stroke-linecap:butt;stroke-linejoin:miter;stroke-dasharray:none;stroke-opacity:1"
       d="m 1438.0806,576.55992 -16.4732,-67.36777 m -546.9956,67.36777 16.4732,-67.36777"
       id="path1486"
       inkscape:original-d="m 1438.0806,576.55992 -16.4732,-67.36777" />
    <path
       style="fill:none;stroke:#000000;stroke-width:4;stroke-linecap:butt;stroke-linejoin:miter;stroke-dasharray:none;stroke-opacity:1"
       d="m 1457.2583,578.03512 -17.2108,-68.5971 m -584.6134,68.5971 17.2108,-68.5971"
       id="path1488"
       inkscape:original-d="m 1457.2583,578.03512 -17.2108,-68.5971" />
    <path
       style="fill:none;stroke:#000000;stroke-width:4;stroke-linecap:butt;stroke-linejoin:miter;stroke-dasharray:none;stroke-opacity:1"
       d="m 1432.9174,576.31405 c 0,0 -7.9262,-34.10404 -9.5889,-40.56818 -0.9637,-3.74651 -5.9078,-3.24123 -7.4306,-6.79737 -1.7887,-4.17708 -0.065,-9.68715 1.1995,-14.0443 0.7098,-2.445 2.789,-5.95792 2.789,-5.95792 M 879.775,576.31405 c 0,0 7.9262,-34.10404 9.5889,-40.56818 0.9637,-3.74651 5.9078,-3.24123 7.4306,-6.79737 1.7887,-4.17708 0.065,-9.68715 -1.1995,-14.0443 -0.7098,-2.445 -2.789,-5.95792 -2.789,-5.95792"
       id="path1490"
       sodipodi:nodetypes="csssc"
       inkscape:original-d="m 1432.9174,576.31405 c 0,0 -7.9262,-34.10404 -9.5889,-40.56818 -0.9637,-3.74651 -5.9078,-3.24123 -7.4306,-6.79737 -1.7887,-4.17708 -0.065,-9.68715 1.1995,-14.0443 0.7098,-2.445 2.789,-5.95792 2.789,-5.95792" />
    <path
       style="fill:none;stroke:#000000;stroke-width:4;stroke-linecap:butt;stroke-linejoin:miter;stroke-dasharray:none;stroke-opacity:1"
       d="m 1407.1012,503.29132 c 0,0 8.1462,4.09862 12.5393,5.16323 3.7571,0.91049 11.5558,0.98347 11.5558,0.98347 l 8.8512,-0.49174 c 0,0 6.9118,-0.54457 10.202,-1.54722 3.2516,-0.99088 7.7047,-2.35145 8.4393,-4.17975 1.4365,-3.575 0.5364,-11.72964 0.5364,-11.72964 0,0 -1.7667,-2.55394 -3.7153,-3.70038 -2.2615,-1.33051 -8.665,-2.4885 -8.665,-2.4885 m -541.2537,17.99053 c 0,0 -8.1462,4.09862 -12.5393,5.16323 -3.7571,0.91049 -11.5558,0.98347 -11.5558,0.98347 l -8.8512,-0.49174 c 0,0 -6.9118,-0.54457 -10.202,-1.54722 -3.2516,-0.99088 -7.7047,-2.35145 -8.4393,-4.17975 -1.4365,-3.575 -0.5364,-11.72964 -0.5364,-11.72964 0,0 1.7667,-2.55394 3.7153,-3.70038 2.2615,-1.33051 8.665,-2.4885 8.665,-2.4885"
       id="path1492"
       sodipodi:nodetypes="csccsscsc"
       inkscape:original-d="m 1407.1012,503.29132 c 0,0 8.1462,4.09862 12.5393,5.16323 3.7571,0.91049 11.5558,0.98347 11.5558,0.98347 l 8.8512,-0.49174 c 0,0 6.9118,-0.54457 10.202,-1.54722 3.2516,-0.99088 7.7047,-2.35145 8.4393,-4.17975 1.4365,-3.575 0.5364,-11.72964 0.5364,-11.72964 0,0 -1.7667,-2.55394 -3.7153,-3.70038 -2.2615,-1.33051 -8.665,-2.4885 -8.665,-2.4885" />
    <path
       style="fill:none;stroke:#000000;stroke-width:4;stroke-linecap:butt;stroke-linejoin:miter;stroke-dasharray:none;stroke-opacity:1"
       d="m 1448.3474,483.04324 c 0,0 -0.531,-3.68336 0.7972,-4.09283 17.7769,-5.4803 119.4045,-25.01001 124.9009,-27.53719 3.5804,-1.64623 -7.8323,-3.3928 -11.7446,-2.92058 -13.347,1.61101 -101.1087,20.86893 -101.1087,20.86893 l -12.7852,3.19628 -3.9339,-1.22934 c 0,0 1.7675,-2.03084 1.2294,-2.95041 -0.7085,-1.21081 -4.1798,-0.49174 -4.1798,-0.49174 0,0 -1.9091,1.40761 -2.9504,1.96695 -5.4038,2.90278 -11.9177,3.64404 -16.9649,7.13016 -1.8602,1.28487 -4.6714,4.91736 -4.6714,4.91736 0,0 6.7045,1.47717 10.0805,1.22934 4.3228,-0.31733 7.1831,-0.21438 11.1485,-1.96438 1.1912,-0.52571 5.6089,-2.00378 7.0016,-3.13324 2.5473,-2.06573 3.2976,-5.46234 3.2976,-5.46234 M 864.345,483.04324 c 0,0 0.531,-3.68336 -0.7972,-4.09283 -17.7769,-5.4803 -119.4045,-25.01001 -124.9009,-27.53719 -3.5804,-1.64623 7.8323,-3.3928 11.7446,-2.92058 13.347,1.61101 101.1087,20.86893 101.1087,20.86893 l 12.7852,3.19628 3.9339,-1.22934 c 0,0 -1.7675,-2.03084 -1.2294,-2.95041 0.7085,-1.21081 4.1798,-0.49174 4.1798,-0.49174 0,0 1.9091,1.40761 2.9504,1.96695 5.4038,2.90278 11.9177,3.64404 16.9649,7.13016 1.8602,1.28487 4.6714,4.91736 4.6714,4.91736 0,0 -6.7045,1.47717 -10.0805,1.22934 -4.3228,-0.31733 -7.1831,-0.21438 -11.1485,-1.96438 -1.1912,-0.52571 -5.6089,-2.00378 -7.0016,-3.13324 -2.5473,-2.06573 -3.2976,-5.46234 -3.2976,-5.46234"
       id="path1494"
       sodipodi:nodetypes="cssscccscsscsssc"
       inkscape:original-d="m 1448.3474,483.04324 c 0,0 -0.531,-3.68336 0.7972,-4.09283 17.7769,-5.4803 119.4045,-25.01001 124.9009,-27.53719 3.5804,-1.64623 -7.8323,-3.3928 -11.7446,-2.92058 -13.347,1.61101 -101.1087,20.86893 -101.1087,20.86893 l -12.7852,3.19628 -3.9339,-1.22934 c 0,0 1.7675,-2.03084 1.2294,-2.95041 -0.7085,-1.21081 -4.1798,-0.49174 -4.1798,-0.49174 0,0 -1.9091,1.40761 -2.9504,1.96695 -5.4038,2.90278 -11.9177,3.64404 -16.9649,7.13016 -1.8602,1.28487 -4.6714,4.91736 -4.6714,4.91736 0,0 6.7045,1.47717 10.0805,1.22934 4.3228,-0.31733 7.1831,-0.21438 11.1485,-1.96438 1.1912,-0.52571 5.6089,-2.00378 7.0016,-3.13324 2.5473,-2.06573 3.2976,-5.46234 3.2976,-5.46234" />
    <path
       style="fill:none;stroke:#000000;stroke-width:4;stroke-linecap:butt;stroke-linejoin:miter;stroke-dasharray:none;stroke-opacity:1"
       d="m 1428.1018,483.31637 -14.8539,15.7952 c 0,0 -4.7633,3.40338 -7.2618,4.3958 -9.1098,3.61855 -18.0661,2.72803 -27.8674,2.86348 -11.2568,0.15556 -24.7731,-1.34162 -36.031,-1.32863 -19.6429,0.0227 -36.8947,0.28626 -56.9369,3.90406 -4.4498,0.80323 -5.6056,8.72084 -10.0086,7.69136 -1.755,-0.41036 -1.5605,-1.62684 -1.6886,-3.42468 -0.2403,-3.37252 -0.2248,-9.14964 2.1084,-9.92164 28.8733,-9.55347 80.1845,-15.55313 120.7211,-20.16115 6.6898,-0.76046 20.1611,-1.22934 20.1611,-1.22934 m -531.8536,1.41554 14.8539,15.7952 c 0,0 4.7633,3.40338 7.2618,4.3958 9.1098,3.61855 18.0661,2.72803 27.8674,2.86348 11.2568,0.15556 24.7731,-1.34162 36.031,-1.32863 19.6429,0.0227 36.8947,0.28626 56.9369,3.90406 4.4498,0.80323 5.6056,8.72084 10.0086,7.69136 1.755,-0.41036 1.5605,-1.62684 1.6886,-3.42468 0.2403,-3.37252 0.2248,-9.14964 -2.1084,-9.92164 -28.8733,-9.55347 -80.1845,-15.55313 -120.7211,-20.16115 -6.6898,-0.76046 -20.1611,-1.22934 -20.1611,-1.22934"
       id="path1496"
       sodipodi:nodetypes="ccssssssssc"
       inkscape:original-d="m 1428.1018,483.31637 -14.8539,15.7952 c 0,0 -4.7633,3.40338 -7.2618,4.3958 -9.1098,3.61855 -18.0661,2.72803 -27.8674,2.86348 -11.2568,0.15556 -24.7731,-1.34162 -36.031,-1.32863 -19.6429,0.0227 -36.8947,0.28626 -56.9369,3.90406 -4.4498,0.80323 -5.6056,8.72084 -10.0086,7.69136 -1.755,-0.41036 -1.5605,-1.62684 -1.6886,-3.42468 -0.2403,-3.37252 -0.2248,-9.14964 2.1084,-9.92164 28.8733,-9.55347 80.1845,-15.55313 120.7211,-20.16115 6.6898,-0.76046 20.1611,-1.22934 20.1611,-1.22934" />
    <path
       style="fill:none;stroke:#000000;stroke-width:4;stroke-linecap:butt;stroke-linejoin:miter;stroke-dasharray:none;stroke-opacity:1"
       d="m 1448.4642,482.94139 c 0,0 -2.0205,3.10092 -3.4993,4.12266 -3.9805,2.75022 -8.3297,5.24979 -13.031,6.39256 -3.8234,0.92938 -12.4971,-0.36262 -12.4971,-0.36262 m -555.2086,-10.1526 c 0,0 2.0205,3.10092 3.4993,4.12266 3.9805,2.75022 8.3297,5.24979 13.031,6.39256 3.8234,0.92938 12.4971,-0.36262 12.4971,-0.36262"
       id="path1498"
       sodipodi:nodetypes="cssc"
       inkscape:original-d="m 1448.4642,482.94139 c 0,0 -2.0205,3.10092 -3.4993,4.12266 -3.9805,2.75022 -8.3297,5.24979 -13.031,6.39256 -3.8234,0.92938 -12.4971,-0.36262 -12.4971,-0.36262" />
    <path
       style="fill:none;stroke:#000000;stroke-width:4;stroke-linecap:butt;stroke-linejoin:miter;stroke-dasharray:none;stroke-opacity:1"
       d="m 1459.2252,491.2438 c 0,0 -1.3145,5.89817 -5.461,7.40075 -7.1494,2.59071 -21.651,3.90564 -29.2835,2.80894 -4.3858,-0.63019 -9.8023,-3.6731 -9.8023,-3.6731 M 853.4672,491.2438 c 0,0 1.3145,5.89817 5.461,7.40075 7.1494,2.59071 21.651,3.90564 29.2835,2.80894 4.3858,-0.63019 9.8023,-3.6731 9.8023,-3.6731"
       id="path1500"
       sodipodi:nodetypes="cssc"
       inkscape:original-d="m 1459.2252,491.2438 c 0,0 -1.3145,5.89817 -5.461,7.40075 -7.1494,2.59071 -21.651,3.90564 -29.2835,2.80894 -4.3858,-0.63019 -9.8023,-3.6731 -9.8023,-3.6731" />
    <path
       style="fill:none;stroke:#000000;stroke-width:4;stroke-linecap:butt;stroke-linejoin:miter;stroke-dasharray:none;stroke-opacity:1"
       d="m 1477.6653,719.16322 -21.1446,15.98141 c 0,0 -16.8246,6.19945 -23.8492,11.55578 -1.8561,1.41529 -41.4843,37.03113 -45.4805,45.70158 -1.5849,3.43875 12.0088,2.42014 16.4681,1.7509 8.1044,-1.21627 39.8306,-27.04545 39.8306,-27.04545 0,0 32.9657,-28.38079 46.469,-41.30579 2.3593,-2.25829 6.4819,-1.37551 9.343,-2.95041 4.7895,-2.63636 7.1251,-9.81285 12.5392,-10.57231 4.282,-0.60065 26.2171,2.66422 30.2417,0.49173 2.4861,-1.34201 40.9453,-56.69726 42.2893,-60.2376 0.8437,-2.22233 -16.043,0.0109 -19.6694,0.7376 -8.9104,1.78554 -33.9298,21.63637 -33.9298,21.63637 0,0 -25.2486,17.47221 -31.2252,23.35743 -3.5781,3.52338 -4.6312,9.07614 -9.2561,11.88602 -2.6151,1.58882 -6.7034,0.6249 -9.184,2.62018 -1.8858,1.51683 -3.4421,6.39256 -3.4421,6.39256 z m -642.6382,0 21.1446,15.98141 c 0,0 16.8246,6.19945 23.8492,11.55578 1.8561,1.41529 41.4843,37.03113 45.4805,45.70158 1.5849,3.43875 -12.0088,2.42014 -16.4681,1.7509 -8.1044,-1.21627 -39.8306,-27.04545 -39.8306,-27.04545 0,0 -32.9657,-28.38079 -46.469,-41.30579 -2.3593,-2.25829 -6.4819,-1.37551 -9.343,-2.95041 -4.7895,-2.63636 -7.1251,-9.81285 -12.5392,-10.57231 -4.282,-0.60065 -26.2171,2.66422 -30.2417,0.49173 -2.4861,-1.34201 -40.9453,-56.69726 -42.2893,-60.2376 -0.8437,-2.22233 16.043,0.0109 19.6694,0.7376 8.9104,1.78554 33.9298,21.63637 33.9298,21.63637 0,0 25.2486,17.47221 31.2252,23.35743 3.5781,3.52338 4.6312,9.07614 9.2561,11.88602 2.6151,1.58882 6.7034,0.6249 9.184,2.62018 1.8858,1.51683 3.4421,6.39256 3.4421,6.39256 z"
       id="path1502"
       sodipodi:nodetypes="ccssscsssssscsssc"
       inkscape:original-d="m 1477.6653,719.16322 -21.1446,15.98141 c 0,0 -16.8246,6.19945 -23.8492,11.55578 -1.8561,1.41529 -41.4843,37.03113 -45.4805,45.70158 -1.5849,3.43875 12.0088,2.42014 16.4681,1.7509 8.1044,-1.21627 39.8306,-27.04545 39.8306,-27.04545 0,0 32.9657,-28.38079 46.469,-41.30579 2.3593,-2.25829 6.4819,-1.37551 9.343,-2.95041 4.7895,-2.63636 7.1251,-9.81285 12.5392,-10.57231 4.282,-0.60065 26.2171,2.66422 30.2417,0.49173 2.4861,-1.34201 40.9453,-56.69726 42.2893,-60.2376 0.8437,-2.22233 -16.043,0.0109 -19.6694,0.7376 -8.9104,1.78554 -33.9298,21.63637 -33.9298,21.63637 0,0 -25.2486,17.47221 -31.2252,23.35743 -3.5781,3.52338 -4.6312,9.07614 -9.2561,11.88602 -2.6151,1.58882 -6.7034,0.6249 -9.184,2.62018 -1.8858,1.51683 -3.4421,6.39256 -3.4421,6.39256 z" />
    <path
       style="fill:none;stroke:#000000;stroke-width:4;stroke-linecap:butt;stroke-linejoin:miter;stroke-dasharray:none;stroke-opacity:1"
       d="m 1540.6074,1107.1426 -24.3409,4.9173 c 0,0 -85.8697,2.8924 -128.5888,7.1302 -24.7167,2.4519 -69.5633,9.1159 -73.7603,10.5723 -2.6732,0.9276 -4.1925,7.5705 -1.4752,8.3595 6.8833,1.9986 74.9896,-0.2459 74.9896,-0.2459 0,0 34.6028,-0.1408 51.8781,-0.9834 16.7074,-0.8149 83.8409,-10.5724 83.8409,-10.5724 l 15.2438,-0.9834 c 0,0 9.0277,6.2356 14.3473,7.5051 3.2723,0.7809 7.3114,0.052 9.9936,0.1168 2.3476,0.057 1.2032,5.4387 3.4422,6.1467 5.2824,1.6702 13.6066,4.3363 19.6694,4.9173 3.2217,0.3087 9.4001,-2.4314 9.4001,-2.4314 0,0 18.3932,6.213 27.9718,7.1029 12.904,1.1989 87.6511,-2.2895 131.2934,-6.1467 19.5939,-1.7317 55.7457,-5.538 58.5165,-7.6219 3.7103,-2.7906 8.5928,-11.7765 5.5655,-12.7677 -4.1271,-1.3511 -51.0752,-4.8441 -77.3589,-6.9017 -25.0767,-1.9632 -49.8989,-7.1552 -75.1486,-6.8519 -15.1474,0.182 -30.4085,0.6244 -45.0807,4.3932 -9.4207,2.4199 -23.08,10.2382 -27.2913,10.3265 -2.8667,0.06 -7.3761,-4.4257 -7.3761,-4.4257 0,0 -15.3774,-7.6789 -18.1942,-8.3595 -3.7968,-0.9175 -12.8137,0.047 -14.5062,-0.7376 -3.2651,-1.513 -6.9714,-4.8962 -9.3429,-5.409 -1.5388,-0.3328 -3.6881,2.9504 -3.6881,2.9504 z m -768.5224,0 24.3409,4.9173 c 0,0 85.8697,2.8924 128.5888,7.1302 24.7167,2.4519 69.5633,9.1159 73.7603,10.5723 2.6732,0.9276 4.1925,7.5705 1.4752,8.3595 -6.8833,1.9986 -74.9896,-0.2459 -74.9896,-0.2459 0,0 -34.6028,-0.1408 -51.8781,-0.9834 -16.7074,-0.8149 -83.8409,-10.5724 -83.8409,-10.5724 l -15.2438,-0.9834 c 0,0 -9.0277,6.2356 -14.3473,7.5051 -3.2723,0.7809 -7.3114,0.052 -9.9936,0.1168 -2.3476,0.057 -1.2032,5.4387 -3.4422,6.1467 -5.2824,1.6702 -13.6066,4.3363 -19.6694,4.9173 -3.2217,0.3087 -9.4001,-2.4314 -9.4001,-2.4314 0,0 -18.3932,6.213 -27.9718,7.1029 -12.904,1.1989 -87.6511,-2.2895 -131.2934,-6.1467 -19.5939,-1.7317 -55.7457,-5.538 -58.5165,-7.6219 -3.7103,-2.7906 -8.5928,-11.7765 -5.5655,-12.7677 4.1271,-1.3511 51.0752,-4.8441 77.3589,-6.9017 25.0767,-1.9632 49.8989,-7.1552 75.1486,-6.8519 15.1474,0.182 30.4085,0.6244 45.0807,4.3932 9.4207,2.4199 23.08,10.2382 27.2913,10.3265 2.8667,0.06 7.3761,-4.4257 7.3761,-4.4257 0,0 15.3774,-7.6789 18.1942,-8.3595 3.7968,-0.9175 12.8137,0.047 14.5062,-0.7376 3.2651,-1.513 6.9714,-4.8962 9.3429,-5.409 1.5388,-0.3328 3.6881,2.9504 3.6881,2.9504 z"
       id="path1504"
       sodipodi:nodetypes="ccssscsccsssscsssssssscsssc"
       inkscape:original-d="m 1540.6074,1107.1426 -24.3409,4.9173 c 0,0 -85.8697,2.8924 -128.5888,7.1302 -24.7167,2.4519 -69.5633,9.1159 -73.7603,10.5723 -2.6732,0.9276 -4.1925,7.5705 -1.4752,8.3595 6.8833,1.9986 74.9896,-0.2459 74.9896,-0.2459 0,0 34.6028,-0.1408 51.8781,-0.9834 16.7074,-0.8149 83.8409,-10.5724 83.8409,-10.5724 l 15.2438,-0.9834 c 0,0 9.0277,6.2356 14.3473,7.5051 3.2723,0.7809 7.3114,0.052 9.9936,0.1168 2.3476,0.057 1.2032,5.4387 3.4422,6.1467 5.2824,1.6702 13.6066,4.3363 19.6694,4.9173 3.2217,0.3087 9.4001,-2.4314 9.4001,-2.4314 0,0 18.3932,6.213 27.9718,7.1029 12.904,1.1989 87.6511,-2.2895 131.2934,-6.1467 19.5939,-1.7317 55.7457,-5.538 58.5165,-7.6219 3.7103,-2.7906 8.5928,-11.7765 5.5655,-12.7677 -4.1271,-1.3511 -51.0752,-4.8441 -77.3589,-6.9017 -25.0767,-1.9632 -49.8989,-7.1552 -75.1486,-6.8519 -15.1474,0.182 -30.4085,0.6244 -45.0807,4.3932 -9.4207,2.4199 -23.08,10.2382 -27.2913,10.3265 -2.8667,0.06 -7.3761,-4.4257 -7.3761,-4.4257 0,0 -15.3774,-7.6789 -18.1942,-8.3595 -3.7968,-0.9175 -12.8137,0.047 -14.5062,-0.7376 -3.2651,-1.513 -6.9714,-4.8962 -9.3429,-5.409 -1.5388,-0.3328 -3.6881,2.9504 -3.6881,2.9504 z" />
    <path
       style="fill:none;stroke:#000000;stroke-width:4;stroke-linecap:butt;stroke-linejoin:miter;stroke-dasharray:none;stroke-opacity:1"
       d="m 1538.1338,1125.0909 c 0,0 -6.5609,-4.2577 -6.3776,-7.6219 0.1577,-2.8956 6.3926,-5.9008 6.3926,-5.9008 0,0 4.8876,-1.9123 7.823,-1.5174 3.2742,0.4405 9.3877,4.2219 9.3877,4.2219 0,0 8.7828,4.9869 13.2769,3.9339 1.5245,-0.3572 1.9398,-3.6376 3.4421,-3.1963 6.7317,1.9774 17.4342,8.4353 19.6694,10.3265 3.1358,2.6532 5.4991,9.3247 5.9009,10.8182 0.5061,1.8812 -2.2128,5.4091 -2.2128,5.4091 m -820.8774,-16.4732 c 0,0 6.5609,-4.2577 6.3776,-7.6219 -0.1577,-2.8956 -6.3926,-5.9008 -6.3926,-5.9008 0,0 -4.8876,-1.9123 -7.823,-1.5174 -3.2742,0.4405 -9.3877,4.2219 -9.3877,4.2219 0,0 -8.7828,4.9869 -13.2769,3.9339 -1.5245,-0.3572 -1.9398,-3.6376 -3.4421,-3.1963 -6.7317,1.9774 -17.4342,8.4353 -19.6694,10.3265 -3.1358,2.6532 -5.4991,9.3247 -5.9009,10.8182 -0.5061,1.8812 2.2128,5.4091 2.2128,5.4091"
       id="path1506"
       sodipodi:nodetypes="cscscssssc"
       inkscape:original-d="m 1538.1338,1125.0909 c 0,0 -6.5609,-4.2577 -6.3776,-7.6219 0.1577,-2.8956 6.3926,-5.9008 6.3926,-5.9008 0,0 4.8876,-1.9123 7.823,-1.5174 3.2742,0.4405 9.3877,4.2219 9.3877,4.2219 0,0 8.7828,4.9869 13.2769,3.9339 1.5245,-0.3572 1.9398,-3.6376 3.4421,-3.1963 6.7317,1.9774 17.4342,8.4353 19.6694,10.3265 3.1358,2.6532 5.4991,9.3247 5.9009,10.8182 0.5061,1.8812 -2.2128,5.4091 -2.2128,5.4091" />
  </g>
</svg>
