<svg width="739" height="231" fill="none" xmlns="http://www.w3.org/2000/svg"><g clip-path="url(#a)"><path fill-rule="evenodd" clip-rule="evenodd" d="M638.691.087c-.073.075-1.744.16-3.714.188-1.971.029-4.753.137-6.183.24-7.325.529-12.982 1.043-17.336 1.577-2.656.326-5.498.66-6.315.745-.817.084-2.378.308-3.467.498-1.09.19-3.207.525-4.706.745-2.758.403-3.221.486-10.525 1.882-11.09 2.12-24.067 5.395-34.919 8.813-11.756 3.703-24.168 8.35-33.929 12.706a186.599 186.599 0 0 1-3.9 1.687c-1.55.638-2.037 1.275-.991 1.296 2.5.049 20.335 2.706 27.428 4.087 12.608 2.454 23.079 4.777 27.861 6.182 1.089.32 2.928.818 4.086 1.107 2.471.617 9.952 2.73 10.203 2.882.095.057-.856 1.132-2.112 2.388-4.475 4.473-6.707 7.161-9.807 11.816a347.087 347.087 0 0 1-2.05 3.05c-.605.873-4.319 8.16-5.26 10.32-2.046 4.697-4.37 13.354-5.106 19.016-.63 4.857-.842 11.248-.519 15.646.239 3.239 1.169 9.403 1.756 11.636.125.477.452 1.764.726 2.861 1.273 5.093 5.233 14.686 7.351 17.806.337.496.829 1.327 1.094 1.846.542 1.062 2.306 3.684 3.825 5.686.558.734 1.23 1.625 1.495 1.98 3.145 4.219 10.276 11.169 14.254 13.894.477.326.922.662.991.746.444.55 4.91 3.38 8.172 5.179 8.116 4.478 17.396 7.488 26.747 8.675 13.841 1.759 27.239-.105 39.996-5.564 3.394-1.451 9.346-4.612 10.297-5.468.215-.193.468-.351.563-.351.337 0 4.352-2.886 6.976-5.016 1.471-1.193 2.714-2.129 2.763-2.079.141.141.785 3.629 1.47 7.961 1.052 6.651 1.289 8.316 1.569 11.018.149 1.43.373 3.101.498 3.714s.402 3.008.616 5.323c.214 2.315.512 5.202.661 6.416.312 2.54.317 2.601.829 12.153.212 3.949.433 7.403.491 7.675.058.273.182 4.395.275 9.161.093 4.766.213 8.713.266 8.772.16.175.75-.71 2.38-3.569a257.035 257.035 0 0 1 1.798-3.123 63.36 63.36 0 0 0 .981-1.736c.404-.734.85-1.523.991-1.754.46-.751 4.967-9.177 6.133-11.467a423.58 423.58 0 0 1 1.527-2.971c.709-1.347 4.608-9.541 4.608-9.684 0-.078.377-.938.837-1.912 1.099-2.324 4.248-9.74 5.008-11.793.33-.888.705-1.838.835-2.11.366-.771 2.243-5.581 2.608-6.685.18-.545.963-2.773 1.741-4.952 3.248-9.101 6.457-19.965 9.141-30.948.732-2.996 1.402-5.837 1.489-6.314.088-.476.374-1.813.636-2.971.263-1.157.753-3.608 1.09-5.447.337-1.838.844-4.568 1.128-6.066.283-1.498.844-5.035 1.246-7.862.402-2.826.789-5.388.86-5.694.24-1.032 1.119-10.414 1.607-17.145.266-3.676.618-8.077.782-9.78.384-3.977.526-25.217.208-31.072-.536-9.872-1.035-17.096-1.522-22.035-.282-2.86-.638-7.038-.791-9.285l-.28-4.085-.867-.077c-.477-.042-2.705-.47-4.953-.95-2.247-.48-4.978-1.027-6.067-1.215-1.09-.188-3.208-.622-4.706-.964-3.51-.8-11.568-2.265-16.469-2.993-15.599-2.317-20.794-2.886-33.929-3.719-5.762-.365-30.214-.78-30.47-.517Zm-12.489 31.012c-11.536 1.196-22.67 5.296-32.451 11.95-1.499 1.02-2.849 1.972-3.002 2.118-.153.146-1.059.87-2.013 1.608-2.145 1.662-8.762 8.294-10.239 10.263-6.928 9.238-10.107 15.376-12.967 25.037-1.03 3.478-1.652 6.577-2.162 10.77-.426 3.5-.477 5.026-.362 10.647.088 4.243.262 7.173.494 8.294.197.953.548 2.791.78 4.085.968 5.387 3.609 12.821 6.552 18.445 1.247 2.383 3.263 5.794 4.024 6.809 4.391 5.854 5.819 7.563 8.851 10.589 1.928 1.924 4.345 4.144 5.372 4.934 2.862 2.202 7.232 5.21 8.849 6.091 3.291 1.795 5.544 2.949 6.596 3.379.613.25 1.841.788 2.729 1.196.888.407 2.477.982 3.531 1.278 1.054.296 2.312.703 2.795.905 1.623.678 9.977 2.313 13.168 2.577 3.887.322 11.857.328 14.119.011.92-.129 2.23-.306 2.911-.393 4.905-.629 12.753-2.812 17.46-4.857 2.539-1.103 7.511-3.626 8.915-4.524 3.572-2.284 5.846-3.922 9.411-6.779 2.851-2.285 8.203-8.016 11.026-11.807 4.631-6.219 9.108-15.081 10.788-21.356.282-1.055.718-2.586.969-3.403.623-2.029 1.123-4.897 1.747-10.028 1.268-10.41-.387-22.828-4.405-33.053-.849-2.158-3.929-8.656-4.576-9.65-.175-.27-.874-1.384-1.553-2.476-3.258-5.24-7.385-10.122-12.712-15.038-2.593-2.394-7.461-5.991-10.584-7.823l-2.464-1.444c-3.118-1.826-9.293-4.452-13.249-5.634-9.171-2.74-19.036-3.687-28.348-2.721Zm2.963 2.573c-5.959.525-12.988 1.885-16.84 3.258-6.983 2.49-12.814 5.188-15.043 6.963-1.21.963-2.912 2.664-2.912 2.91 0 .2-.003.199 4.953 2.064 13.367 5.031 25.027 10.748 40.615 19.913 1.975 1.162 3.981 2.359 4.458 2.66l2.724 1.722a393.01 393.01 0 0 1 6.439 4.14c6.385 4.162 7.929 5.144 8.083 5.144.322 0-.284-11.509-1.036-19.683-.625-6.787-2.229-20.253-2.581-21.664-.119-.476-.29-1.44-.379-2.14l-.164-1.274-1.791-.751c-2.714-1.14-7.901-2.32-13.152-2.995-2.712-.348-10.655-.507-13.374-.267Zm32.084 5.934c-.227.14-.236.423-.039 1.15.143.529.492 2.466.775 4.305.284 1.838.68 4.362.881 5.61.202 1.246.471 3.419.598 4.827.126 1.409.394 4.12.595 6.027.676 6.439 1.003 14.805 1.005 25.75.003 10.9-.284 17.798-1.006 24.177-.21 1.859-.346 3.665-.302 4.013.086.673.217.609 7.095-3.442 2.306-1.358 11.812-7.795 14.037-9.504.885-.68 2.115-1.598 8.154-6.084 6.004-4.46 7.127-5.514 7.595-7.131.464-1.602-.426-5.244-2.554-10.448-1.391-3.4-5.135-11.029-6.132-12.492a115.7 115.7 0 0 1-1.448-2.239 51.449 51.449 0 0 0-2.156-3.095 270.557 270.557 0 0 1-2.148-2.847c-1.522-2.05-7.931-8.334-10.599-10.39-3.425-2.64-6.776-4.77-10.277-6.533-3.29-1.657-3.76-1.848-4.074-1.654Zm-72.498 10.689c-2.357 2.028-7.014 6.989-9.264 9.869-1.301 1.665-3.691 5.123-3.691 5.341 0 .105-.159.366-.354.581-.702.776-4.381 8.196-5.117 10.32-.414 1.195-.857 2.367-.984 2.604-.202.377-.9 2.918-2.102 7.645-.501 1.971-1.297 8.99-1.463 12.894-.151 3.569.064 8.399.374 8.399.155 0 2.324-1.551 3.702-2.647.204-.163 1.486-1.119 2.848-2.124l4.34-3.204a172.04 172.04 0 0 1 3.962-2.82c1.155-.793 2.671-1.836 3.368-2.318 2.392-1.651 5.636-3.847 6.049-4.094.227-.136.903-.572 1.501-.968 4.114-2.725 4.847-3.189 10.687-6.757a62.748 62.748 0 0 1 2.536-1.456c.681-.364 1.517-.857 1.857-1.094.341-.238 2.235-1.31 4.21-2.382a376.572 376.572 0 0 0 4.087-2.24c.567-.332 12.154-6.114 14.302-7.137.783-.373 1.424-.75 1.424-.838 0-.252-1.293-1.012-5.325-3.129-5.223-2.742-15.996-8.043-16.347-8.043-.06 0-.809-.318-1.663-.706-3.262-1.482-10.527-4.408-12.08-4.865-.34-.1-1.592-.559-2.78-1.02-1.189-.46-2.325-.836-2.524-.836-.199 0-.898.46-1.553 1.025Zm-493.17 6.47c-1.15 1.398-5.546 6.707-9.769 11.796a49087.44 49087.44 0 0 0-30.709 37.049c-5.176 6.25-12.28 14.82-15.788 19.044-3.507 4.225-6.377 7.747-6.377 7.828 0 .08 4.04.219 8.977.307 4.938.089 11.653.23 14.922.313l5.943.151 7.46-9.001a26372.12 26372.12 0 0 1 17.955-21.627c5.773-6.945 11.777-14.174 13.343-16.066 2.828-3.414 2.849-3.432 2.934-2.6.175 1.708-.2 42.327-.426 46.148-.129 2.179-.161 4.031-.071 4.116.09.085 7.24.341 15.89.569 8.649.228 25.421.682 37.272 1.01 11.85.327 22.883.62 24.517.651l2.972.057.168-7.039c.316-13.224.991-56.292 1.031-65.717l.039-9.409-44.096-.062-44.096-.063-2.091 2.544Zm111.853-.5c-.122 1.727-1.049 28.108-2.482 70.624-.184 5.447-.263 9.975-.176 10.064.139.141 6.934.36 26.161.845 2.997.076 15.585.409 27.973.742 12.389.332 23.155.604 23.926.604h1.402l.17-7.861c.476-22.059 1.358-76.657 1.242-76.845-.076-.122-17.145-.217-39.103-.217h-38.968l-.145 2.043Zm148.747 0c-2.846 3.412-26.299 31.85-28.508 34.566-.734.904-4.37 5.32-8.079 9.813-3.709 4.494-13.168 15.97-21.021 25.502l-14.278 17.331-39.928.124-39.929.124-.411 11.389c-.227 6.264-.422 12.698-.434 14.298l-.021 2.909h86.821l3.23-3.899c3.225-3.894 15.44-18.633 30.913-37.298a36380.6 36380.6 0 0 0 14.379-17.358c5.194-6.277 43.785-52.819 47.843-57.7.707-.85 1.217-1.613 1.135-1.695-.082-.082-6.867-.15-15.079-.15h-14.929l-1.704 2.043Zm44.277-.62c-1.519 1.692-3.955 5.263-4.99 7.313-1.377 2.727-2.271 8.038-1.839 10.92l.172 1.14h18.434c10.14 0 18.436.056 18.436.123s-.736 2.044-1.635 4.395l-3.478 9.1a2929.895 2929.895 0 0 1-3.185 8.294 2226.35 2226.35 0 0 0-3.226 8.418c-1.778 4.668-3.181 8.34-7.8 20.427l-4.444 11.636a2677.154 2677.154 0 0 1-3.463 9.037 2541.92 2541.92 0 0 0-2.991 7.799 6103.665 6103.665 0 0 1-3.867 10.102 1588.913 1588.913 0 0 0-2.436 6.376l-.602 1.598 37.156-.063 37.156-.063 1.672-4.332a5911.807 5911.807 0 0 0 8.198-21.417c1.245-3.268 2.803-7.335 3.461-9.037.659-1.702 2.219-5.769 3.467-9.037l4.254-11.141c1.092-2.86 2.69-7.038 3.551-9.285.861-2.247 2.478-6.48 3.593-9.408a5170.922 5170.922 0 0 1 7.367-19.25l1.648-4.271h36.535l1.223-1.47c3.151-3.785 5.819-8.649 6.617-12.064.407-1.739.42-6.317.02-6.954-.155-.246-15.216-.31-73.961-.31h-73.766l-1.277 1.424ZM601.18 87.898c-.817.522-2.6 1.63-3.962 2.464-1.362.833-2.755 1.72-3.096 1.97-.34.25-1.956 1.34-3.591 2.42-3.432 2.271-9.212 6.381-12.259 8.718a771.284 771.284 0 0 1-5.2 3.94c-3.421 2.569-5.214 4.199-5.991 5.447-.722 1.16-.51 2.467 1.253 7.718 3.734 11.127 7.916 18.836 13.89 25.612 6.294 7.137 13.083 12.166 21.496 15.923 2.166.968 2.594 1.011 2.42.246-.345-1.521-.882-4.55-1.239-6.995a933.271 933.271 0 0 0-.755-5.075c-.197-1.294-.412-3.021-.478-3.838a2726.15 2726.15 0 0 0-.93-11.141c-.65-7.563-.363-36.359.462-46.485.186-2.28.139-2.3-2.02-.924Zm99.061 6.93c-.381.616-11.792 9.484-15.601 12.124-.409.283-1.858 1.293-3.22 2.244-2.482 1.733-7.656 5.158-9.896 6.551-3.921 2.437-5.448 3.346-9.916 5.9a530.076 530.076 0 0 1-8.049 4.511c-3.274 1.778-15.161 7.723-16.54 8.273-.448.178-.775.449-.726.6.09.285 2.389 1.631 5.627 3.296 1.021.525 2.748 1.417 3.838 1.983 2.234 1.159 11.266 5.519 11.435 5.519.06 0 1.524.629 3.253 1.398 4.128 1.835 7.261 3.118 10.449 4.278 1.43.521 3.347 1.232 4.26 1.581l1.659.635 1.684-1.379c2.395-1.96 5.279-4.811 7.339-7.256.976-1.157 1.835-2.16 1.911-2.228.075-.068.521-.681.991-1.362.47-.68.921-1.293 1.002-1.361.165-.139 2.567-3.959 3.293-5.239 3.106-5.474 5.665-12.15 6.96-18.158 1.018-4.724 1.67-11.302 1.497-15.103-.259-5.714-.404-7.057-.765-7.057-.182 0-.4.113-.485.25Zm-94.619 30.018c.091 2.349.265 5.329.389 6.623.123 1.294.351 4.135.506 6.314.155 2.178.382 4.852.505 5.942.123 1.089.387 3.449.587 5.245.565 5.075.898 7.676 1.357 10.6.128.817.37 2.412.537 3.545l.303 2.058 1.631.742c.897.408 2.634 1.006 3.86 1.329 1.226.324 2.563.703 2.972.843.926.318 5.074.918 8.667 1.255 10.376.972 23.01-1.146 33.761-5.661 3.094-1.3 9.034-4.289 10.074-5.07 1.167-.877 2.084-1.889 2.096-2.315.012-.393-.903-.855-3.248-1.641-1.042-.35-3.271-1.206-4.953-1.904-1.682-.697-3.615-1.468-4.296-1.712-.681-.245-2.297-.945-3.591-1.556a231.396 231.396 0 0 0-3.963-1.826c-2.3-1.02-13.107-6.487-15.602-7.893a670.34 670.34 0 0 0-4.481-2.495c-1.933-1.065-7.821-4.548-9.388-5.553-.762-.49-3.762-2.369-4.529-2.837-1.257-.768-7.743-4.986-10.338-6.723-1.299-.87-2.509-1.581-2.691-1.581-.268 0-.299.798-.165 4.271ZM19.169 148.964c-2.439 2.95-7.749 9.357-11.801 14.239C3.316 168.084 0 172.132 0 172.199c0 .067 6.77.114 15.045.105l15.045-.017 7.297-8.525 7.297-8.524h58.375l-.079 8.542-.08 8.541h79.34l.38-1.795c.499-2.353 1.082-10.169 1.772-23.768l.16-3.157H23.603l-4.434 5.363Zm17.637 42.944c-1.564.368-3.833 1.714-4.868 2.889-1.337 1.519-2.018 3.424-2.161 6.043-.102 1.856-.043 2.305.424 3.27 1.005 2.076 2.587 3.099 7.169 4.639 3.612 1.214 3.988 1.459 3.988 2.602 0 .699-.2 1.09-.934 1.824-2.4 2.401-7.73 1.703-7.112-.93.13-.556.12-.557-3.002-.557h-3.133l.117 1.795c.198 3.028 1.71 5.038 4.634 6.158 1.75.671 5.881.918 7.908.473 3.186-.7 5.941-2.927 6.993-5.653.652-1.688.92-5.254.495-6.546-.743-2.25-3.018-3.819-7.29-5.027-2.956-.836-3.974-1.455-4.068-2.474-.164-1.791 1.704-3.17 4.244-3.134 1.793.025 2.486.554 2.486 1.899v.872h6.092v-1.705c0-3.126-1.784-5.378-5.023-6.339-1.392-.414-5.377-.47-6.96-.099Zm23.648.104c-3.897 1.085-6.797 4.135-7.825 8.228-.813 3.236-2.131 11.834-1.983 12.933.422 3.143 1.66 4.953 4.262 6.234 1.446.712 1.936.82 4.102.907 3.062.123 5.07-.369 7.137-1.749 1.356-.905 3.453-3.35 3.438-4.009-.004-.148-.953-.799-2.11-1.448l-2.104-1.179-.777.884c-2.267 2.582-6.47 2.601-7.32.033-.265-.803-.192-1.58.567-6.054.479-2.822.99-5.503 1.136-5.958 1.127-3.511 6.83-4.926 8.286-2.055.15.296.342.607.426.691.112.112 4.386-1.24 4.811-1.522.033-.023-.105-.601-.309-1.285-.49-1.651-2.008-3.34-3.785-4.209-1.238-.606-1.742-.7-4.016-.754-1.73-.04-3.048.064-3.936.312Zm137.575-.104c-1.564.368-3.833 1.714-4.868 2.889-1.338 1.519-2.019 3.424-2.161 6.043-.102 1.856-.044 2.305.424 3.27 1.005 2.076 2.587 3.099 7.169 4.639 3.612 1.214 3.988 1.459 3.988 2.602 0 .699-.2 1.09-.934 1.824-2.401 2.401-7.731 1.703-7.112-.93.13-.556.12-.557-3.002-.557H188.4l.117 1.795c.198 3.028 1.71 5.038 4.634 6.158 1.75.671 5.881.918 7.908.473 3.186-.7 5.941-2.927 6.993-5.653.652-1.688.921-5.254.494-6.546-.743-2.25-3.017-3.819-7.288-5.027-2.957-.836-3.975-1.455-4.069-2.474-.164-1.791 1.704-3.17 4.243-3.134 1.794.025 2.486.554 2.486 1.899v.872h6.093v-1.705c0-3.126-1.784-5.378-5.023-6.339-1.392-.414-5.378-.47-6.959-.099Zm34.297.104c-1.979.551-3.593 1.521-4.994 3.002-2.26 2.389-2.758 4.003-4.459 14.445-.467 2.867-.503 3.541-.253 4.736.811 3.88 4.153 6.158 9.034 6.158 5.639 0 9.911-2.957 11.269-7.799.696-2.485 2.277-12.671 2.132-13.741-.43-3.171-1.8-5.149-4.383-6.326-1.37-.625-1.896-.72-4.286-.779-1.854-.046-3.151.051-4.06.304Zm104.757 0c-3.896 1.085-6.796 4.135-7.824 8.228-.813 3.236-2.132 11.834-1.984 12.933.422 3.143 1.66 4.953 4.263 6.234 1.445.712 1.936.82 4.101.907 3.062.123 5.071-.369 7.138-1.749 1.356-.905 3.452-3.35 3.438-4.009-.004-.148-.953-.799-2.11-1.448l-2.104-1.179-.777.884c-2.267 2.582-6.47 2.601-7.32.033-.265-.803-.193-1.58.566-6.054.479-2.822.99-5.503 1.136-5.958 1.128-3.511 6.831-4.926 8.287-2.055.15.296.341.607.425.691.112.112 4.387-1.24 4.812-1.522.033-.023-.106-.601-.309-1.285-.49-1.651-2.009-3.34-3.786-4.209-1.237-.606-1.742-.7-4.015-.754-1.73-.04-3.048.064-3.937.312Zm73.058 0c-1.979.551-3.593 1.521-4.993 3.002-2.26 2.389-2.759 4.003-4.459 14.445-.468 2.867-.503 3.541-.254 4.736.812 3.88 4.154 6.158 9.035 6.158 5.638 0 9.911-2.957 11.268-7.799.697-2.485 2.278-12.671 2.132-13.741-.429-3.171-1.8-5.149-4.382-6.326-1.371-.625-1.896-.72-4.286-.779-1.854-.046-3.152.051-4.061.304Zm43.587 0c-1.978.551-3.593 1.521-4.993 3.002-2.26 2.389-2.758 4.003-4.459 14.445-.467 2.867-.503 3.541-.253 4.736.811 3.88 4.153 6.158 9.034 6.158 5.639 0 9.911-2.957 11.269-7.799.696-2.485 2.277-12.671 2.132-13.741-.43-3.171-1.8-5.149-4.383-6.326-1.371-.625-1.896-.72-4.286-.779-1.854-.046-3.151.051-4.061.304Zm24.198-.03c-3.567 1.027-6.071 3.256-7.376 6.565-.677 1.718-2.484 11.957-2.484 14.079 0 .933.176 2.212.39 2.841.538 1.578 2.074 3.237 3.767 4.068 1.302.639 1.644.694 4.264.694 2.707 0 2.924-.038 4.395-.784l1.548-.785v.599c0 .592.029.599 2.353.599 1.294 0 2.353-.073 2.353-.163 0-.175 2.395-13.859 2.626-15.002l.137-.681h-5.22c-2.871 0-5.222.028-5.225.062a246.13 246.13 0 0 1-.464 2.6l-.46 2.538h1.95c2.23 0 2.221-.012 1.569 2.185-.74 2.491-3.133 3.867-5.686 3.27-1.322-.309-1.858-1.016-1.858-2.452 0-1.66 1.847-11.681 2.323-12.6.898-1.737 3.408-2.734 5.787-2.299 1.24.227 1.64.521 2.048 1.505.167.404.356.735.421.735.346 0 5.032-1.548 5.113-1.689.054-.093-.055-.68-.24-1.305-.454-1.534-2.033-3.264-3.74-4.098-1.242-.608-1.712-.691-4.263-.75-1.859-.043-3.275.052-4.028.268Zm55.922-.074c-1.564.368-3.833 1.714-4.868 2.889-1.338 1.519-2.019 3.424-2.161 6.043-.102 1.856-.044 2.305.424 3.27 1.005 2.076 2.587 3.099 7.169 4.639 3.612 1.214 3.988 1.459 3.988 2.602 0 .699-.2 1.09-.934 1.824-2.401 2.401-7.731 1.703-7.112-.93.13-.556.12-.557-3.002-.557h-3.133l.117 1.795c.198 3.028 1.71 5.038 4.634 6.158 1.75.671 5.881.918 7.908.473 3.186-.7 5.941-2.927 6.993-5.653.652-1.688.921-5.254.494-6.546-.743-2.25-3.017-3.819-7.288-5.027-2.957-.836-3.975-1.455-4.069-2.474-.164-1.791 1.704-3.17 4.243-3.134 1.794.025 2.486.554 2.486 1.899v.872h6.093v-1.705c0-3.126-1.784-5.378-5.023-6.339-1.392-.414-5.378-.47-6.959-.099ZM6.871 205.87C3.092 213.428 0 219.67 0 219.742c0 .072 1.52.099 3.379.061l3.379-.069 1.395-3.095 1.396-3.094 3.74-.068 3.742-.069.138.811c.077.446.21 1.702.296 2.792.247 3.105-.08 2.847 3.602 2.847 2.548 0 3.203-.069 3.203-.339 0-.187-.891-6.308-1.981-13.604-1.09-7.295-1.981-13.381-1.981-13.525 0-.171-1.14-.262-3.283-.262h-3.282L6.87 205.87Zm69.782-13.185c-.071.307-1.133 6.295-2.36 13.308-1.228 7.013-2.288 13.002-2.357 13.308l-.126.557h18.742l.289-1.795c.159-.987.36-2.213.448-2.723l.16-.929H79.196l.134-.557a48.49 48.49 0 0 0 .406-2.166c.15-.885.334-1.916.408-2.291l.135-.68h5.553c4.27 0 5.555-.072 5.563-.31.007-.17.214-1.396.462-2.723l.45-2.414H86.77c-3.046 0-5.538-.034-5.538-.076 0-.042.222-1.289.495-2.772.272-1.482.495-2.729.495-2.771 0-.042 2.708-.076 6.017-.076h6.018l.427-2.538c.235-1.396.424-2.621.421-2.723-.002-.102-4.126-.186-9.163-.186h-9.159l-.13.557Zm21.913-.354c0 .119-1.058 6.223-2.352 13.563-1.293 7.34-2.352 13.485-2.352 13.655 0 .231.798.309 3.17.309h3.17l1.338-7.436 1.337-7.437 1.424 3.661 2.865 7.374 1.443 3.714 3.399.069c1.903.039 3.399-.029 3.399-.154 0-.123 1.059-6.226 2.352-13.563 1.294-7.336 2.353-13.478 2.353-13.648 0-.232-.8-.31-3.175-.31h-3.176l-1.311 7.366c-.722 4.051-1.384 7.445-1.471 7.542-.087.096-1.458-3.19-3.047-7.304l-2.888-7.48-3.239-.069c-1.781-.038-3.239.029-3.239.148Zm23.696 2.335c-.235 1.396-.424 2.621-.421 2.723.002.103 1.398.186 3.101.186 2.641 0 3.095.057 3.095.387 0 .213-.836 5.141-1.857 10.952-1.022 5.811-1.858 10.651-1.858 10.755 0 .104 1.439.189 3.198.189h3.197l.286-1.671c.158-.919 1.032-5.905 1.943-11.08l1.657-9.408 3.355-.069 3.354-.068.426-2.531c.234-1.393.424-2.615.421-2.717-.003-.102-4.385-.186-9.738-.186h-9.732l-.427 2.538Zm33.112-1.609c.076.51.648 6.499 1.272 13.308.624 6.808 1.187 12.63 1.251 12.936.115.554.142.557 4.755.554l4.638-.003 5.996-13.444c3.297-7.394 6.069-13.635 6.159-13.869.15-.391-.109-.42-3.231-.356l-3.393.069-4.499 10.216c-3.842 8.723-4.525 10.115-4.677 9.532-.157-.605-1.693-18.342-1.683-19.439.003-.391-.32-.433-3.361-.433h-3.365l.138.929Zm26.899-.703c0 .125-1.058 6.233-2.352 13.575-1.294 7.341-2.353 13.478-2.353 13.638 0 .208.919.291 3.22.291 1.991 0 3.219-.095 3.219-.249 0-.137 1.059-6.241 2.353-13.564 1.294-7.324 2.352-13.451 2.352-13.616 0-.22-.861-.301-3.219-.301-1.779 0-3.22.101-3.22.226Zm33.186 0c0 .125-1.059 6.233-2.353 13.575-1.294 7.341-2.352 13.478-2.352 13.638 0 .208.919.291 3.219.291 1.992 0 3.22-.095 3.22-.249 0-.137 1.058-6.241 2.352-13.564 1.294-7.324 2.353-13.451 2.353-13.616 0-.22-.861-.301-3.219-.301-1.78 0-3.22.101-3.22.226Zm34.919-.023c0 .119-1.058 6.223-2.352 13.563-1.293 7.34-2.352 13.485-2.352 13.655-.001.231.798.309 3.17.309h3.17l1.338-7.436 1.337-7.437 1.424 3.661 2.865 7.374 1.443 3.714 3.399.069c1.903.039 3.399-.029 3.399-.154 0-.123 1.059-6.226 2.352-13.563 1.294-7.336 2.353-13.478 2.353-13.648 0-.232-.8-.31-3.175-.31h-3.176l-1.311 7.366c-.722 4.051-1.384 7.445-1.471 7.542-.087.096-1.458-3.19-3.047-7.304l-2.888-7.48-3.239-.069c-1.781-.038-3.239.029-3.239.148Zm35.831 2.335c-.235 1.396-.424 2.621-.421 2.723.002.103 1.398.186 3.101.186 2.641 0 3.095.057 3.095.387 0 .213-.836 5.141-1.857 10.952-1.022 5.811-1.858 10.651-1.858 10.755 0 .104 1.439.189 3.198.189h3.197l.286-1.671c.158-.919 1.032-5.905 1.943-11.08l1.657-9.408 3.355-.069 3.354-.068.426-2.531c.234-1.393.424-2.615.421-2.717-.003-.102-4.385-.186-9.738-.186h-9.732l-.427 2.538Zm22.743-1.981c-.071.307-1.133 6.295-2.36 13.308-1.227 7.013-2.287 13.002-2.357 13.308l-.125.557h18.742l.289-1.795c.158-.987.36-2.213.448-2.723l.16-.929h-12.254l.134-.557a48.26 48.26 0 0 0 .407-2.166c.15-.885.333-1.916.407-2.291l.136-.68h5.552c4.271 0 5.555-.072 5.564-.31.006-.17.214-1.396.462-2.723l.45-2.414h-5.538c-3.046 0-5.539-.034-5.539-.076 0-.042.223-1.289.495-2.772.273-1.482.496-2.729.496-2.771 0-.042 2.708-.076 6.017-.076h6.018l.426-2.538c.235-1.396.425-2.621.422-2.723-.003-.102-4.126-.186-9.164-.186h-9.158l-.13.557Zm41.988 12.752a7387.803 7387.803 0 0 1-2.443 13.864c-.105.555-.091.557 3.12.557h3.226l.41-2.29c.227-1.26.661-3.739.966-5.509l.555-3.219 3.886-.068c3.584-.063 3.887-.034 3.886.372 0 .241-.39 2.612-.866 5.267-.476 2.656-.865 4.968-.866 5.138 0 .231.808.309 3.219.309 1.864 0 3.219-.099 3.219-.235 0-.129 1.059-6.227 2.353-13.552 1.294-7.324 2.353-13.457 2.353-13.63 0-.236-.781-.313-3.179-.313H367.6l-.967 5.571-.968 5.571h-3.902c-2.96 0-3.902-.075-3.898-.31.003-.17.429-2.677.947-5.571l.941-5.261-3.237.001h-3.237l-2.339 13.308Zm27.476-13.106c0 .119-1.059 6.223-2.352 13.563-1.294 7.34-2.353 13.485-2.353 13.655-.001.231.798.309 3.17.309h3.171l1.337-7.436 1.337-7.437 1.424 3.661 2.866 7.374 1.442 3.714 3.399.069c1.903.039 3.399-.029 3.399-.154 0-.123 1.059-6.226 2.352-13.563 1.294-7.336 2.353-13.478 2.353-13.648 0-.232-.8-.31-3.175-.31h-3.175l-1.312 7.366c-.722 4.051-1.384 7.445-1.471 7.542-.087.096-1.458-3.19-3.046-7.304l-2.888-7.48-3.239-.069c-1.782-.038-3.239.029-3.239.148Zm49.778.032c0 .129-1.059 6.228-2.353 13.552-1.294 7.324-2.352 13.458-2.352 13.63 0 .455 16.34.459 16.356.004.006-.17.214-1.396.462-2.724l.45-2.414h-4.919c-3.966 0-4.92-.065-4.92-.334 0-.184.836-5.077 1.858-10.874 1.021-5.796 1.857-10.66 1.857-10.807 0-.178-1.076-.268-3.219-.268-1.865 0-3.22.099-3.22.235Zm67.857-.009c0 .125-1.058 6.233-2.352 13.575-1.294 7.341-2.353 13.478-2.353 13.638 0 .208.919.291 3.219.291 1.992 0 3.22-.095 3.22-.249 0-.137 1.059-6.241 2.353-13.564 1.294-7.324 2.352-13.451 2.352-13.616 0-.22-.861-.301-3.219-.301-1.779 0-3.22.101-3.22.226Zm11.025.331c-.071.307-1.133 6.295-2.361 13.308-1.227 7.013-2.287 13.002-2.356 13.308l-.126.557h18.742l.289-1.795c.158-.987.36-2.213.448-2.723l.16-.929h-12.254l.135-.557c.073-.306.256-1.281.406-2.166.15-.885.333-1.916.408-2.291l.135-.68h5.553c4.271 0 5.555-.072 5.563-.31.006-.17.214-1.396.462-2.723l.451-2.414h-5.539c-3.046 0-5.539-.034-5.539-.076 0-.042.223-1.289.496-2.772.272-1.482.495-2.729.495-2.771 0-.042 2.708-.076 6.017-.076h6.018l.427-2.538c.235-1.396.424-2.621.421-2.723-.002-.102-4.126-.186-9.163-.186h-9.159l-.129.557Zm-272.873 4.632c-2.473.485-3.093 1.694-4.255 8.305-1.14 6.487-1.176 7.356-.335 8.197 1.182 1.181 3.9 1.269 5.565.178 1.103-.722 1.527-2.061 2.573-8.113.978-5.664 1.017-6.319.443-7.488-.44-.899-2.319-1.406-3.991-1.079Zm177.815 0c-2.472.485-3.092 1.694-4.254 8.305-1.141 6.487-1.176 7.356-.335 8.197 1.182 1.181 3.9 1.269 5.564.178 1.104-.722 1.528-2.061 2.573-8.113.979-5.664 1.017-6.319.444-7.488-.44-.899-2.319-1.406-3.992-1.079Zm43.588 0c-2.473.485-3.093 1.694-4.255 8.305-1.141 6.487-1.176 7.356-.335 8.197 1.182 1.181 3.9 1.269 5.564.178 1.104-.722 1.528-2.061 2.573-8.113.979-5.664 1.018-6.319.444-7.488-.44-.899-2.319-1.406-3.991-1.079Zm-441.538 6.166c-.913 1.993-1.733 3.819-1.822 4.058-.149.393.046.433 2.091.433 1.746 0 2.256-.077 2.256-.34 0-.484-.764-7.687-.82-7.735-.026-.022-.793 1.591-1.705 3.584Z" fill="#101424"/></g><defs><clipPath id="a"><path fill="#fff" d="M0 0h739v231H0z"/></clipPath></defs></svg>